<?xml version="1.0" encoding="utf-8"?>
<!-- Generator: Adobe Illustrator 26.0.3, SVG Export Plug-In . SVG Version: 6.00 Build 0)  -->
<svg version="1.1" id="Layer_1" xmlns="http://www.w3.org/2000/svg" xmlns:xlink="http://www.w3.org/1999/xlink" x="0px" y="0px"
	 viewBox="0 0 588.3 41.1" style="enable-background:new 0 0 588.3 41.1;" xml:space="preserve">
<style type="text/css">
	.st0{fill:none;}
	.st1{fill:#1B3460;}
	.st2{fill:#70C169;stroke:#1B3460;stroke-width:2;stroke-linecap:round;stroke-linejoin:round;stroke-miterlimit:10;}
	.st3{fill:#FFFFFF;}
	.st4{font-family:'MarkPro-Bold';}
	.st5{font-size:16px;}
	.st6{fill:none;stroke:#FFFFFF;stroke-width:2.2;stroke-linecap:round;stroke-linejoin:round;}
	.st7{fill:none;stroke:#FFFFFF;stroke-width:2;stroke-linecap:round;stroke-linejoin:round;stroke-miterlimit:10;}
</style>
<rect x="0" y="0" class="st0" width="588.3" height="41.1"/>
<path class="st1" d="M578.7,34H9.2C7.5,34,6,32.6,6,30.8V11c0-1.8,1.4-3.2,3.2-3.2h569.5c1.8,0,3.2,1.4,3.2,3.2v19.8
	C581.9,32.6,580.5,34,578.7,34z"/>
<rect x="54.6" y="15" class="st0" width="154.8" height="15.5"/>
<text transform="matrix(1 0 0 1 54.6087 26.4967)" class="st3 st4 st5">A Step Beyond</text>
<g>
	<circle class="st2" cx="31.4" cy="20.9" r="16"/>
	<g>
		<g>
			<polyline class="st6" points="21.6,27 31.4,27 31.4,16.3 41,16.3 			"/>
			<g>
				<polygon class="st3" points="37,19.6 40.4,16.3 37,12.9 39.9,12.9 43.2,16.3 39.9,19.6 				"/>
			</g>
		</g>
	</g>
</g>
</svg>
