<svg id="Layer_1" data-name="Layer 1" xmlns="http://www.w3.org/2000/svg" viewBox="0 0 300 300"><defs><style>.cls-1{fill:none;}.cls-2{fill:#000239;}.cls-3{fill:#02afbb;}</style></defs><rect class="cls-1" x="0.04" width="300" height="300"/><path class="cls-2" d="M259.16,280.63H45.78a8.4,8.4,0,0,1-8.4-8.4V26.58a8.4,8.4,0,0,1,8.4-8.4H259.16a8.4,8.4,0,1,1,0,16.8h-205V263.83H250.76V54.46a8.41,8.41,0,0,1,16.81,0V272.23A8.41,8.41,0,0,1,259.16,280.63Z"/><path class="cls-2" d="M163.82,96.69H74.19a8.4,8.4,0,0,1,0-16.8h89.63a8.4,8.4,0,1,1,0,16.8Z"/><path class="cls-2" d="M163.82,158.64H74.19a8.41,8.41,0,0,1,0-16.81h89.63a8.41,8.41,0,0,1,0,16.81Z"/><path class="cls-2" d="M163.82,220.58H74.19a8.4,8.4,0,1,1,0-16.8h89.63a8.4,8.4,0,0,1,0,16.8Z"/><path class="cls-3" d="M204.38,109h0a8.45,8.45,0,0,1-5.94-2.47L185.55,93.6a8.4,8.4,0,0,1,11.9-11.86l6.94,7,22.29-22.31a8.4,8.4,0,1,1,11.88,11.87l-28.24,28.25A8.35,8.35,0,0,1,204.38,109Z"/><path class="cls-3" d="M204.38,172h0a8.44,8.44,0,0,1-5.94-2.46l-12.88-12.91a8.4,8.4,0,1,1,11.9-11.87l6.94,7,22.29-22.29a8.4,8.4,0,1,1,11.88,11.87l-28.24,28.24A8.39,8.39,0,0,1,204.38,172Z"/><path class="cls-3" d="M204.38,235h0a8.44,8.44,0,0,1-5.94-2.47l-12.88-12.91a8.4,8.4,0,1,1,11.9-11.87l6.94,7,22.29-22.27a8.39,8.39,0,0,1,11.88,11.86l-28.24,28.23A8.41,8.41,0,0,1,204.38,235Z"/></svg>