<svg width="278" height="279" viewBox="0 0 278 279" fill="none" xmlns="http://www.w3.org/2000/svg">
<path d="M138.81 278.29C215.417 278.29 277.52 216.188 277.52 139.58C277.52 62.9727 215.417 0.870117 138.81 0.870117C62.2026 0.870117 0.0999756 62.9727 0.0999756 139.58C0.0999756 216.188 62.2026 278.29 138.81 278.29Z" fill="#DA375E"/>
<path d="M242.19 69.6599C240.85 67.6699 238.81 66.3299 236.46 65.8799C234.12 65.4299 231.75 65.93 229.8 67.28C227.83 68.61 226.49 70.64 226.05 72.98C225.6 75.32 226.09 77.6899 227.43 79.6599C239.44 97.3699 245.78 118.08 245.78 139.57C245.78 164.83 236.8 189.3 220.46 208.59L151.44 139.58L227.06 63.9399C228.74 62.2599 229.67 60.0199 229.67 57.6399C229.67 55.2599 228.74 53.0201 227.06 51.3301C203.53 27.7701 172.2 14.79 138.82 14.79C70 14.79 14.02 70.7601 14.02 139.57C14.02 208.39 70.01 264.37 138.82 264.37C207.64 264.37 263.63 208.38 263.63 139.57C263.62 114.5 256.21 90.3199 242.19 69.6599ZM69.79 57.96C89.08 41.63 113.55 32.6499 138.82 32.6499C164.19 32.6499 188.67 41.6099 207.88 57.8999L138.82 126.97L69.79 57.96ZM126.2 139.59L57.19 208.61C40.85 189.32 31.86 164.84 31.86 139.57C31.86 114.32 40.84 89.8601 57.17 70.5701L126.2 139.59ZM207.84 221.21C188.55 237.54 164.08 246.53 138.82 246.53C113.56 246.53 89.1 237.55 69.81 221.23L138.82 152.21L207.84 221.21Z" fill="white"/>
</svg>
