<svg id="Layer_1" data-name="Layer 1" xmlns="http://www.w3.org/2000/svg" viewBox="0 0 300 300"><defs><style>.cls-1,.cls-3{fill:none;}.cls-2{fill:#000239;}.cls-3{stroke:#000239;stroke-width:18px;}.cls-3,.cls-4{stroke-miterlimit:10;}.cls-4,.cls-5{fill:#02afbb;fill-rule:evenodd;}.cls-4{stroke:#02afbb;stroke-width:6px;}</style></defs><rect class="cls-1" x="0.04" width="300" height="300"/><circle class="cls-2" cx="128.49" cy="170.3" r="27.33"/><circle class="cls-3" cx="128.49" cy="170.3" r="64.36"/><circle class="cls-3" cx="128.49" cy="170.3" r="107.89"/><path class="cls-4" d="M279.31,48.14a5.16,5.16,0,0,1-5,5H257.44a11.91,11.91,0,0,1-11.77-11.77V24.58a5,5,0,0,1,10.09,0V41.41a1.59,1.59,0,0,0,1.68,1.68h16.83A4.77,4.77,0,0,1,279.31,48.14Z"/><path class="cls-4" d="M268.78,58.67a5.18,5.18,0,0,1-5,5H246.9A11.91,11.91,0,0,1,235.13,52V35.12a5,5,0,1,1,10.09,0V52a1.6,1.6,0,0,0,1.68,1.68h16.83A4.77,4.77,0,0,1,268.78,58.67Z"/><path class="cls-4" d="M258.24,69.21a5.18,5.18,0,0,1-5.05,5.05H236.37a11.92,11.92,0,0,1-11.78-11.78V45.66a5,5,0,1,1,10.09,0V62.48a1.6,1.6,0,0,0,1.69,1.69h16.82A4.77,4.77,0,0,1,258.24,69.21Z"/><path class="cls-5" d="M123,175.64a7.7,7.7,0,0,1,0-11.14L242.63,44.84A7.88,7.88,0,0,1,253.77,56L134.11,175.64C131.46,178.82,126.16,178.82,123,175.64Z"/></svg>