<svg width="1080" height="438" viewBox="0 0 1080 438" fill="none" xmlns="http://www.w3.org/2000/svg">
<rect width="1080" height="438" fill="white"/>
<path d="M144 365.218C122.471 365.218 107 380.389 107 401.567C107 424.197 124.223 437.866 143.649 437.866C163.526 437.866 177.895 422.896 177.895 401.667C177.895 400.365 177.845 399.064 177.695 397.712H145.452V409.378H163.276C161.423 419.341 154.764 424.848 143.349 424.848C131.233 424.848 121.469 415.886 121.469 401.567C121.469 387.899 130.782 378.486 143.599 378.486C150.759 378.486 156.567 381.29 160.522 385.846L170.585 375.983C164.377 369.224 155.115 365.218 144 365.218Z" fill="white"/>
<path d="M205.413 364.517H192.345V436.614H205.413V364.517Z" fill="white"/>
<path d="M245.324 386.797C230.254 386.797 219.139 397.712 219.139 412.332C219.139 426.951 230.254 437.866 245.324 437.866C260.444 437.866 271.609 426.951 271.609 412.332C271.609 397.712 260.444 386.797 245.324 386.797ZM245.324 398.964C252.684 398.964 258.241 404.471 258.241 412.332C258.241 420.192 252.684 425.699 245.324 425.699C237.964 425.699 232.457 420.192 232.457 412.332C232.457 404.471 237.964 398.964 245.324 398.964Z" fill="white"/>
<path d="M312.523 386.797C306.014 386.797 301.458 389.351 298.304 393.156V364.517H285.286V436.614H298.053V431.257C301.208 435.162 305.864 437.866 312.573 437.866C325.941 437.866 336.054 426.901 336.054 412.332C336.054 397.762 325.941 386.797 312.523 386.797ZM310.12 398.964C317.83 398.964 322.636 404.922 322.636 412.332C322.636 419.741 317.83 425.699 310.12 425.699C302.71 425.699 297.653 419.992 297.653 412.332C297.653 404.671 302.71 398.964 310.12 398.964Z" fill="white"/>
<path d="M397.465 388.099H384.698V393.456C381.494 389.501 376.837 386.797 370.178 386.797C356.81 386.797 346.697 397.762 346.697 412.332C346.697 426.901 356.81 437.866 370.178 437.866C376.837 437.866 381.544 435.162 384.698 431.257V436.614H397.465V388.099ZM372.582 398.964C380.042 398.964 385.098 404.671 385.098 412.332C385.098 419.992 380.042 425.699 372.582 425.699C364.921 425.699 360.065 419.741 360.065 412.332C360.065 404.922 364.921 398.964 372.582 398.964Z" fill="white"/>
<path d="M427.281 364.517H414.213V436.614H427.281V364.517Z" fill="white"/>
<path d="M525.227 423.797H486.826V407.675H523.074V394.858H486.826V379.337H524.827V366.52H472.857V436.614H525.227V423.797Z" fill="white"/>
<path d="M561.243 386.797C547.876 386.797 537.762 397.762 537.762 412.332C537.762 426.901 547.876 437.866 561.243 437.866C567.902 437.866 572.609 435.162 575.763 431.257V436.614H588.53V364.517H575.513V393.156C572.358 389.351 567.752 386.797 561.243 386.797ZM563.647 398.964C571.107 398.964 576.163 404.671 576.163 412.332C576.163 419.992 571.107 425.699 563.647 425.699C555.986 425.699 551.13 419.741 551.13 412.332C551.13 404.922 555.986 398.964 563.647 398.964Z" fill="white"/>
<path d="M650.789 388.099H637.772V414.785C637.772 422.545 633.466 425.699 627.859 425.699C622.201 425.699 617.945 422.545 617.945 414.785V388.099H604.878V415.936C604.878 431.257 615.692 437.866 627.859 437.866C639.975 437.866 650.789 431.257 650.789 415.936V388.099Z" fill="white"/>
<path d="M689.981 386.797C674.51 386.797 664.146 397.662 664.146 412.332C664.146 427.051 674.51 437.866 689.981 437.866C698.092 437.866 704.901 434.611 709.457 428.754L700.145 420.793C697.391 423.797 693.786 425.699 689.581 425.699C682.822 425.699 677.464 420.442 677.464 412.332C677.464 404.271 682.872 398.964 689.631 398.964C693.886 398.964 697.041 400.666 699.995 403.82L709.407 395.96C704.951 390.102 698.092 386.797 689.981 386.797Z" fill="white"/>
<path d="M768.67 388.099H755.903V393.456C752.699 389.501 748.043 386.797 741.384 386.797C728.016 386.797 717.902 397.762 717.902 412.332C717.902 426.901 728.016 437.866 741.384 437.866C748.043 437.866 752.749 435.162 755.903 431.257V436.614H768.67V388.099ZM743.787 398.964C751.247 398.964 756.304 404.671 756.304 412.332C756.304 419.992 751.247 425.699 743.787 425.699C736.127 425.699 731.27 419.741 731.27 412.332C731.27 404.922 736.127 398.964 743.787 398.964Z" fill="white"/>
<path d="M820.616 388.099H803.042V373.68H789.975V388.099H780.612V399.715H789.975V418.49C789.975 431.057 796.133 437.866 808.149 437.866C815.058 437.866 819.965 435.663 824.221 432.759L819.414 422.545C816.761 424.147 813.406 425.699 810.302 425.699C806.247 425.699 803.042 423.497 803.042 417.438V399.715H820.616V388.099Z" fill="white"/>
<path d="M848.233 388.099H835.165V436.614H848.233V388.099ZM841.624 363.816C836.917 363.816 833.313 367.521 833.313 372.228C833.313 376.934 836.917 380.539 841.624 380.539C846.33 380.539 849.985 376.934 849.985 372.228C849.985 367.521 846.33 363.816 841.624 363.816Z" fill="white"/>
<path d="M888.144 386.797C873.074 386.797 861.959 397.712 861.959 412.332C861.959 426.951 873.074 437.866 888.144 437.866C903.264 437.866 914.429 426.951 914.429 412.332C914.429 397.712 903.264 386.797 888.144 386.797ZM888.144 398.964C895.504 398.964 901.061 404.471 901.061 412.332C901.061 420.192 895.504 425.699 888.144 425.699C880.784 425.699 875.277 420.192 875.277 412.332C875.277 404.471 880.784 398.964 888.144 398.964Z" fill="white"/>
<path d="M955.093 386.797C949.585 386.797 944.278 388.65 940.823 393.807V388.099H928.106V436.614H941.174V410.028C941.174 402.719 945.83 399.064 951.438 399.064C957.396 399.064 960.9 402.919 960.9 409.928V436.614H973.968V405.723C973.968 394.458 966.107 386.797 955.093 386.797Z" fill="white"/>
<path d="M242.877 294.301H251.335C248.031 309.932 235.138 320.453 217.911 320.453C197.691 320.453 181.392 304.923 181.392 284.39C181.392 263.857 197.691 248.428 217.911 248.428C235.138 248.428 248.031 258.848 251.335 274.479H242.877C239.986 263.14 230.702 255.985 217.911 255.985C202.025 255.985 189.641 268.143 189.641 284.384C189.641 300.626 202.019 312.884 217.911 312.884C230.702 312.896 239.986 305.54 242.877 294.301Z" fill="white"/>
<path d="M335.512 284.39C335.512 268.658 323.133 255.991 307.247 255.991C291.362 255.991 278.977 268.658 278.977 284.39C278.977 300.122 291.356 312.789 307.247 312.789C323.139 312.789 335.512 300.122 335.512 284.39ZM343.76 284.39C343.76 304.413 327.461 320.353 307.241 320.353C287.022 320.353 270.723 304.413 270.723 284.39C270.723 264.367 287.022 248.428 307.241 248.428C327.461 248.434 343.76 264.367 343.76 284.39Z" fill="white"/>
<path d="M419.167 249.654V305.13L374.083 249.654H367.48V319.125H375.633V264.366L420.507 319.125H427.313V249.654H419.167Z" fill="white"/>
<path d="M456.662 249.654V319.125H464.808V290.11H500.507V282.653H464.808V257.111H504.834V249.654H456.662Z" fill="white"/>
<path d="M532.99 249.654V319.125H579.828V311.668H541.142V249.654H532.99Z" fill="white"/>
<path d="M657.498 289.398C657.498 307.892 645.532 320.352 627.479 320.352C609.427 320.352 597.461 307.887 597.461 289.398V249.66H605.614V289.398C605.614 302.984 614.281 312.795 627.485 312.795C640.588 312.795 649.357 302.984 649.357 289.398V249.66H657.504V289.398H657.498Z" fill="white"/>
<path d="M686.092 249.654V319.125H735.198V311.668H694.244V288.373H731.068V280.916H694.244V257.111H735.198V249.654H686.092Z" fill="white"/>
<path d="M811.252 249.654V305.13L766.168 249.654H759.566V319.125H767.718V264.366L812.593 319.125H819.398V249.654H811.252Z" fill="white"/>
<path d="M841.037 249.654V257.111H866.829V319.125H874.976V257.111H900.87V249.654H841.037Z" fill="white"/>
<path d="M570.794 94.3889C562.09 94.1222 553.387 94.051 544.684 93.9977C544.666 85.3731 544.618 76.7545 544.385 68.1299L543.972 53.4414C543.72 48.5452 543.571 43.6491 543.224 38.7529H539.034C538.687 43.6491 538.537 48.5452 538.285 53.4414L537.872 68.1299C537.765 72.1606 537.699 76.1854 537.657 80.2161C536.059 76.5114 534.443 72.8126 532.785 69.1316L526.727 55.7176C524.602 51.2897 522.573 46.8203 520.358 42.428L516.492 44.0166C518.06 48.6697 519.82 53.2517 521.478 57.8693L526.769 71.5975C528.23 75.3674 529.732 79.1255 531.252 82.8717C528.337 80.0502 525.416 77.2287 522.459 74.4486L511.679 64.354C508.004 61.0702 504.407 57.7092 500.66 54.4906L497.697 57.4247C500.947 61.1294 504.341 64.6978 507.657 68.3373L517.85 79.0129C520.658 81.947 523.501 84.8337 526.356 87.7204C522.573 86.2148 518.778 84.727 514.971 83.2866L501.108 78.0407C496.446 76.3988 491.819 74.6561 487.12 73.1031L485.516 76.9382C489.951 79.1314 494.464 81.1349 498.936 83.2451L512.481 89.2438C516.198 90.8857 519.933 92.4862 523.674 94.0688C519.604 94.1103 515.54 94.1755 511.47 94.2822L496.637 94.6912C491.693 94.9402 486.749 95.0884 481.805 95.4322V99.5815C486.749 99.9253 491.693 100.073 496.637 100.322L511.47 100.731C520.179 100.963 528.882 101.01 537.591 101.028C537.645 109.646 537.717 118.265 537.986 126.884L538.447 141.572C538.71 146.468 538.872 151.365 539.231 156.261H543.032C543.391 151.365 543.553 146.468 543.816 141.572L544.277 126.884C544.403 122.752 544.481 118.627 544.541 114.495C546.193 118.289 547.857 122.071 549.574 125.841L555.674 139.237C557.811 143.659 559.852 148.122 562.079 152.509L565.592 151.068C564.03 146.409 562.288 141.821 560.642 137.198L555.393 123.452C553.914 119.581 552.388 115.728 550.843 111.887C553.836 114.768 556.841 117.649 559.882 120.482L570.698 130.547C574.379 133.825 577.988 137.174 581.741 140.381L584.429 137.719C581.191 134.003 577.803 130.428 574.499 126.783L564.335 116.072C561.474 113.055 558.565 110.085 555.656 107.115C559.541 108.645 563.425 110.156 567.334 111.62L581.215 116.819C585.884 118.449 590.51 120.174 595.221 121.721L596.676 118.241C592.246 116.036 587.739 114.015 583.274 111.899L569.746 105.859C565.945 104.163 562.12 102.51 558.296 100.88C562.462 100.82 566.634 100.743 570.8 100.619L585.632 100.162C590.576 99.9015 595.52 99.7415 600.465 99.3858V95.6218C595.52 95.2662 590.576 95.1061 585.632 94.8453L570.794 94.3889Z" fill="white"/>
<path d="M541.13 1.99072C487.947 1.99072 444.677 44.841 444.677 97.5072C444.677 150.174 487.947 193.024 541.13 193.024C594.312 193.024 637.583 150.174 637.583 97.5072C637.583 44.841 594.312 1.99072 541.13 1.99072ZM541.13 185.318C492.239 185.318 452.458 145.929 452.458 97.5072C452.458 49.091 492.233 9.69654 541.13 9.69654C590.027 9.69654 629.801 49.0851 629.801 97.5072C629.801 145.929 590.021 185.318 541.13 185.318Z" fill="white"/>
</svg>
