<svg id="Layer_1" data-name="Layer 1" xmlns="http://www.w3.org/2000/svg" viewBox="0 0 300 300"><defs><style>.cls-1{fill:none;}.cls-2{fill:#000239;}.cls-3{fill:#02afbb;}</style></defs><rect class="cls-1" x="0.04" width="300" height="300"/><path class="cls-2" d="M259.12,271.86H47.65a27.35,27.35,0,0,1-27.33-27.31V59.39A27.36,27.36,0,0,1,47.65,32.07h96.8c13.18,0,29,8.72,36.07,19.86l2,3.19C186.48,61.35,196.82,67,204.21,67h73.7a8.52,8.52,0,1,1,0,17h-73.7c-13.18,0-29-8.71-36.06-19.83l-2-3.21c-3.94-6.24-14.28-11.92-21.67-11.92H47.65A10.3,10.3,0,0,0,37.36,59.39v34H277.91a8.51,8.51,0,0,1,8.52,8.52V244.55A27.34,27.34,0,0,1,259.12,271.86ZM37.36,110.43V244.55a10.29,10.29,0,0,0,10.29,10.28H259.12a10.29,10.29,0,0,0,10.28-10.28V110.43Z"/><path class="cls-3" d="M195.19,240.73H114.83a7.12,7.12,0,0,1-7.13-7.12V183.34a7.13,7.13,0,0,1,14.25,0v43.15h66.11V136.9H157v28.27a7.11,7.11,0,0,1-7.12,7.12H114.83a7.12,7.12,0,0,1-5.06-12.14l35.09-35.39s0,0,0,0h0s0,0,0,0h0a7.07,7.07,0,0,1,2.2-1.47,7.21,7.21,0,0,1,2.79-.57h45.27a7.12,7.12,0,0,1,7.12,7.12V233.61A7.12,7.12,0,0,1,195.19,240.73Zm-63.27-82.68H142.8v-11Z"/></svg>