<svg id="Layer_1" data-name="Layer 1" xmlns="http://www.w3.org/2000/svg" viewBox="0 0 300 300"><defs><style>.cls-1,.cls-3{fill:none;}.cls-2{fill:#000239;}.cls-3{stroke:#02afbb;stroke-linecap:round;stroke-linejoin:round;stroke-width:26.34px;}</style></defs><rect class="cls-1" x="0.04" width="300" height="300"/><rect class="cls-1" x="0.04" width="300" height="300"/><path class="cls-2" d="M185.71,219.29a11,11,0,0,1-5.69.34c-34.47-6.94-83.28-21.67-109.3-69.16-9-16.53-15.79-45.66-5-73.28,6-15.38,20-35.93,52.06-46.6,48-15.94,82.19,7.79,98.24,35.3,19.38,33.23,19.11,84.84-18.89,119.2a11.1,11.1,0,0,1-14.9-16.46c29.23-26.43,29.46-66.07,14.62-91.54-15.13-25.9-42.06-35.39-72.06-25.42-19.22,6.39-32.13,17.7-38.39,33.62-7.54,19.18-3.54,41.2,3.78,54.5,21.56,39.37,64.06,52,94.16,58.07a11.11,11.11,0,0,1,1.32,21.43Z"/><ellipse class="cls-2" cx="120.76" cy="108.55" rx="9.21" ry="12.03" transform="translate(-28.08 43.64) rotate(-18.39)"/><ellipse class="cls-2" cx="161.95" cy="94.86" rx="9.21" ry="12.03" transform="translate(-21.66 55.93) rotate(-18.39)"/><path class="cls-2" d="M142.8,76.45l.64-.45c3.19-2.2,6.8-4.69,10.86-6s8.45-1.51,12.32-1.65l.79,0a2,2,0,0,0,1.76-1.16,1.59,1.59,0,0,0-.4-1.88c-3.35-3-10-3.47-16.47-1.31s-11.49,6.55-12.42,10.91a1.61,1.61,0,0,0,.82,1.75A2,2,0,0,0,142.8,76.45Z"/><path class="cls-2" d="M97,91.11A2,2,0,0,0,99.1,91l.65-.44c3.18-2.2,6.79-4.7,10.86-6s8.45-1.51,12.31-1.66l.79,0a2,2,0,0,0,1.76-1.15,1.59,1.59,0,0,0-.39-1.88c-3.36-3-10-3.48-16.48-1.32S97.11,85,96.19,89.36A1.6,1.6,0,0,0,97,91.11Z"/><path class="cls-2" d="M178.31,142.26a2.52,2.52,0,0,1-2.35,1.67h-1.09c-5.32,0-11.29.18-16.82,2s-10.42,5.27-14.68,8.47l-.87.65a2.51,2.51,0,0,1-2.89.07,2.79,2.79,0,0,1-1.22-2.74c1-6.68,6.53-16.41,15.37-19.35s19.09,1.55,23.89,6.3A2.76,2.76,0,0,1,178.31,142.26Z"/><polyline class="cls-3" points="280.55 157.14 258.52 157.14 214.69 265.92 152.07 241.61 89.47 265.92 45.63 157.14 23.61 157.14"/></svg>