<svg id="Layer_1" data-name="Layer 1" xmlns="http://www.w3.org/2000/svg" viewBox="0 0 300 300"><defs><style>.cls-1{fill:#000239;}.cls-2,.cls-3{fill:none;}.cls-3{stroke:#000239;stroke-linecap:round;stroke-miterlimit:10;stroke-width:12.8px;}.cls-4{fill:#02afbb;}</style></defs><path class="cls-1" d="M166.33,124.36l.95-.43c4.63-2.09,9.89-4.46,15.24-4.46s10.6,2.37,15.23,4.46l.95.43a2,2,0,0,0,2.54-1,4.49,4.49,0,0,0,.27-3.7c-2.81-7.44-10.44-12.44-19-12.44s-16.19,5-19,12.44a4.45,4.45,0,0,0,.28,3.7A2,2,0,0,0,166.33,124.36Z"/><path class="cls-1" d="M115.34,123.32a2,2,0,0,0,2.54,1l.94-.43c4.63-2.09,9.89-4.46,15.24-4.46s10.6,2.37,15.23,4.46l1,.43a2,2,0,0,0,2.54-1,4.49,4.49,0,0,0,.27-3.7c-2.81-7.44-10.44-12.44-19-12.44s-16.19,5-19,12.44A4.45,4.45,0,0,0,115.34,123.32Z"/><path class="cls-1" d="M163.64,263.59a12.85,12.85,0,0,1-6.42-1.71c-35.53-20.33-84-54.53-95.35-116.57-3.93-21.59-.68-56.24,21.44-82.79C95.62,47.74,118.57,30.15,158,30.15c58.84,0,88,38.81,95.59,75.1,9.21,43.84-10,100.76-64.66,124.77a12.92,12.92,0,0,1-10.42-23.65c42-18.48,56.83-62.19,49.78-95.79C221,76.41,194.77,56,158,56c-23.58,0-42,7.75-54.76,23-15.38,18.43-19,44.22-15.85,61.61,9.36,51.42,51.69,81,82.72,98.76a12.93,12.93,0,0,1-6.42,24.15Z"/><rect class="cls-2" x="0.04" width="300" height="300"/><rect class="cls-2" x="0.04" width="300" height="300"/><path class="cls-1" d="M129.77,181.93c1,1.7,2.52,2.36,3.95,1.7l1.46-.7c7.22-3.42,15.39-7.3,23.71-7.3s16.49,3.88,23.7,7.3l1.47.7c1.43.66,3,0,3.95-1.7a7.61,7.61,0,0,0,.43-6,31.63,31.63,0,0,0-59.09,0A7.57,7.57,0,0,0,129.77,181.93Z"/><line class="cls-3" x1="129.29" y1="82.78" x2="113.32" y2="93.04"/><line class="cls-3" x1="186.86" y1="82.78" x2="202.82" y2="93.04"/><path class="cls-4" d="M103.06,91.69a30.07,30.07,0,0,1-60.13,0C42.93,75.08,73,33.49,73,33.49S103.06,75.08,103.06,91.69Z"/></svg>