<svg id="Layer_1" data-name="Layer 1" xmlns="http://www.w3.org/2000/svg" viewBox="0 0 300 300"><defs><style>.cls-1{fill:#000239;}.cls-2{fill:none;}</style></defs><path class="cls-1" d="M157.44,265.92a13.19,13.19,0,0,1-6.54-1.74c-36.18-20.71-85.58-55.53-97.08-118.69-4-22-.7-57.27,21.83-84.3,12.53-15,35.9-32.95,76-32.95,59.91,0,89.56,39.51,97.32,76.46,9.38,44.63-10.22,102.59-65.82,127a13.16,13.16,0,0,1-10.61-24.09c42.76-18.81,57.85-63.31,50.68-97.52-7.33-34.8-34.08-55.55-71.57-55.55-24,0-42.76,7.89-55.75,23.47-15.66,18.76-19.4,45-16.14,62.73,9.53,52.34,52.63,82.45,84.22,100.54a13.17,13.17,0,0,1-6.53,24.6Z"/><ellipse class="cls-1" cx="125.79" cy="117.05" rx="10.92" ry="14.26"/><ellipse class="cls-1" cx="177.24" cy="117.05" rx="10.92" ry="14.26"/><rect class="cls-2" x="0.04" width="300" height="300"/><rect class="cls-2" x="0.04" width="300" height="300"/><path class="cls-1" d="M188.33,159.12a5.05,5.05,0,0,0-5.05-1.33l-1.88.55c-9.22,2.69-19.69,5.74-30.33,5.74S130,161,120.75,158.34l-1.88-.55a5,5,0,0,0-5.05,1.33,4,4,0,0,0-.55,4.75c5.6,9.57,20.79,16,37.8,16s32.21-6.44,37.8-16A4,4,0,0,0,188.33,159.12Z"/></svg>