<?xml version="1.0" encoding="utf-8"?>
<!-- Generator: Adobe Illustrator 26.0.3, SVG Export Plug-In . SVG Version: 6.00 Build 0)  -->
<svg version="1.1" id="Layer_1" xmlns="http://www.w3.org/2000/svg" xmlns:xlink="http://www.w3.org/1999/xlink" x="0px" y="0px"
	 viewBox="0 0 588.3 41.1" style="enable-background:new 0 0 588.3 41.1;" xml:space="preserve">
<style type="text/css">
	.st0{fill:none;}
	.st1{fill:#1B3460;}
	.st2{fill:#FFFFFF;}
	.st3{font-family:'MarkPro-Bold';}
	.st4{font-size:16px;}
	.st5{fill:#70C169;stroke:#1B3460;stroke-width:2;stroke-linecap:round;stroke-linejoin:round;stroke-miterlimit:10;}
</style>
<rect class="st0" width="588.3" height="41.1"/>
<path class="st1" d="M578.7,34H9.2C7.5,34,6,32.6,6,30.8V11c0-1.8,1.4-3.2,3.2-3.2h569.5c1.8,0,3.2,1.4,3.2,3.2v19.8
	C581.9,32.6,580.5,34,578.7,34z"/>
<rect x="54.6" y="15" class="st0" width="154.8" height="15.5"/>
<text transform="matrix(1 0 0 1 54.6087 26.4967)" class="st2 st3 st4">Further Reading</text>
<g>
	<circle class="st5" cx="31.4" cy="20.9" r="16"/>
	<g>
		<g>
			<path class="st2" d="M38.9,29.4H24.4c-0.3,0-0.6-0.3-0.6-0.6V12.2c0-0.3,0.3-0.6,0.6-0.6h14.5c0.3,0,0.6,0.3,0.6,0.6
				c0,0.3-0.3,0.6-0.6,0.6H25v15.5h13.3V13.9c0-0.3,0.3-0.6,0.6-0.6c0.3,0,0.6,0.3,0.6,0.6v15C39.5,29.2,39.2,29.4,38.9,29.4z"/>
		</g>
		<g>
			<g>
				<g>
					<path class="st2" d="M35.8,16.5h-8.2c-0.3,0-0.6-0.3-0.6-0.6c0-0.3,0.3-0.6,0.6-0.6h8.2c0.3,0,0.6,0.3,0.6,0.6
						C36.3,16.2,36.1,16.5,35.8,16.5z"/>
				</g>
			</g>
			<g>
				<g>
					<path class="st2" d="M35.8,19.6h-8.2c-0.3,0-0.6-0.3-0.6-0.6c0-0.3,0.3-0.6,0.6-0.6h8.2c0.3,0,0.6,0.3,0.6,0.6
						C36.3,19.3,36.1,19.6,35.8,19.6z"/>
				</g>
			</g>
			<g>
				<g>
					<path class="st2" d="M35.8,22.6h-8.2c-0.3,0-0.6-0.3-0.6-0.6c0-0.3,0.3-0.6,0.6-0.6h8.2c0.3,0,0.6,0.3,0.6,0.6
						C36.3,22.4,36.1,22.6,35.8,22.6z"/>
				</g>
			</g>
			<g>
				<g>
					<path class="st2" d="M31.9,25.7h-4.4c-0.3,0-0.6-0.3-0.6-0.6c0-0.3,0.3-0.6,0.6-0.6h4.4c0.3,0,0.6,0.3,0.6,0.6
						C32.5,25.4,32.3,25.7,31.9,25.7z"/>
				</g>
			</g>
		</g>
	</g>
</g>
</svg>
