<svg width="279" height="278" viewBox="0 0 279 278" fill="none" xmlns="http://www.w3.org/2000/svg">
<path d="M139.49 277.63C216.097 277.63 278.2 215.527 278.2 138.92C278.2 62.3125 216.097 0.209961 139.49 0.209961C62.8826 0.209961 0.780029 62.3125 0.780029 138.92C0.780029 215.527 62.8826 277.63 139.49 277.63Z" fill="#70C169"/>
<path d="M240.97 66.2899C239.59 64.3699 237.42 63.1999 234.85 62.9799C231.88 62.7199 228.78 63.83 226.75 65.84L111.81 180.97L69.56 138.7C67.31 136.38 64.45 135.52 61.52 136.29C58.26 137.14 55.49 139.9 54.63 143.15C53.85 146.09 54.7 148.95 57.01 151.19C57.19 151.37 105.52 199.73 105.52 199.73C107.11 201.38 109.4 202.33 111.81 202.33C111.82 202.33 111.82 202.33 111.83 202.33C114.23 202.33 116.51 201.38 118.08 199.73L118.06 199.71C118.35 199.46 118.75 199.06 119.35 198.45L232.14 85.4899C244.85 107.46 249.45 131.54 245.45 155.22C241.76 177.05 230.67 198.04 214.23 214.32C197.78 230.61 176.66 241.5 154.76 245C130.64 248.85 106.22 243.81 84.16 230.44C23.93 192.94 23.28 129.36 48.17 86.1498C61.8 62.4898 82.54 44.8699 106.57 36.5499C133.58 27.1899 162.86 30.2099 191.23 45.2799C197.85 48.9299 204.13 53.3398 209.9 58.3898C212.77 61.6798 216.36 63.6799 219.52 63.7399C221.85 63.8099 223.94 62.8599 225.7 60.9799L225.78 60.8798C228.03 57.7798 228.24 54.31 226.41 50.56C218.35 34 170.95 16.2399 159.84 15.7799C122.24 10.2499 88.54 18.6199 62.37 39.9999C39.11 58.9999 23.4 86.9799 18.13 118.79C12.86 150.59 18.69 182.15 34.57 207.63C52.44 236.33 81.66 255.14 119.04 262.02C126.57 263.51 134.12 264.24 141.61 264.24C159.05 264.24 176.19 260.24 192.1 252.37C213.19 241.93 231.26 225.32 244.34 204.32C257.44 183.29 264.4 159.7 264.47 136.11C264.56 110.71 256.43 86.5599 240.97 66.2899Z" fill="white"/>
</svg>
