<svg id="Layer_1" data-name="Layer 1" xmlns="http://www.w3.org/2000/svg" viewBox="0 0 300 300"><defs><style>.cls-1{fill:none;}.cls-2{fill:#000239;}.cls-3{fill:#02afbb;}</style></defs><rect class="cls-1" x="0.04" width="300" height="300"/><path class="cls-2" d="M267.67,232h-230a7.86,7.86,0,0,1-7.87-7.86V42.3a7.87,7.87,0,0,1,7.87-7.87h230a7.87,7.87,0,0,1,0,15.73H45.55V216.32H259.81V64.8a7.86,7.86,0,1,1,15.72,0V224.18A7.85,7.85,0,0,1,267.67,232Z"/><path class="cls-2" d="M267.67,202.13h-230a7.86,7.86,0,1,1,0-15.72h230a7.86,7.86,0,0,1,0,15.72Z"/><path class="cls-2" d="M201,263.81h-96.7a7.87,7.87,0,0,1,0-15.73H201a7.87,7.87,0,0,1,0,15.73Z"/><path class="cls-2" d="M152.68,263.81a7.87,7.87,0,0,1-7.87-7.87V243.61a7.87,7.87,0,0,1,15.73,0v12.33A7.86,7.86,0,0,1,152.68,263.81Z"/><path class="cls-3" d="M113.66,149.44a7.78,7.78,0,0,1-4.53-1.44L76.06,124.72a7.86,7.86,0,0,1,0-12.86l33.07-23.28a7.86,7.86,0,1,1,9.06,12.85L94.25,118.29l23.94,16.86a7.86,7.86,0,0,1-4.53,14.29Z"/><path class="cls-3" d="M191.72,149.44a7.86,7.86,0,0,1-4.53-14.29l23.93-16.86-23.93-16.86a7.86,7.86,0,0,1,9.06-12.85l33.05,23.28a7.87,7.87,0,0,1,0,12.86L196.25,148A7.83,7.83,0,0,1,191.72,149.44Z"/><path class="cls-3" d="M142.46,164.62a8.29,8.29,0,0,1-2-.26,7.89,7.89,0,0,1-5.59-9.62l20.44-77a7.87,7.87,0,1,1,15.21,4l-20.44,77A7.86,7.86,0,0,1,142.46,164.62Z"/></svg>