<svg id="Layer_1" data-name="Layer 1" xmlns="http://www.w3.org/2000/svg" viewBox="0 0 300 300"><defs><style>.cls-1{fill:none;}.cls-2,.cls-6,.cls-7{fill:#000239;}.cls-2,.cls-3,.cls-6{stroke:#000239;}.cls-2,.cls-3,.cls-4,.cls-5,.cls-6{stroke-miterlimit:10;}.cls-2,.cls-3{stroke-width:2px;}.cls-3{fill:#fff;}.cls-4,.cls-5{fill:#02afbb;stroke:#02afbb;}.cls-4,.cls-6{stroke-width:3px;}.cls-5{stroke-width:4px;}</style></defs><rect class="cls-1" x="0.04" width="300" height="300"/><path class="cls-2" d="M83.74,198.71l-6.55-2.09c-8.83-2.83-14-10.57-11.72-17.63l2.14-6.66c1-3-.7-7.18-3.93-9.91-1.52-1.26-5.51-4-10.12-1.61l-7.23,3.78c-6.19,3.14-14.07-.8-18.4-9.15l-3.15-6.12C20.54,141.1,22.39,132,29,128.58l6.23-3.21c2.8-1.44,4.59-5.56,4.23-9.78-.17-2-1.09-6.7-6-8.27h0l-7.79-2.45C19,102.7,16.23,94.34,19.09,85.4l2.11-6.57C24,70,31.77,64.87,38.84,67.13l6.63,2.12c3,1,7.2-.68,9.92-3.93,1.28-1.51,4-5.52,1.59-10.09L53.21,48c-3.14-6.2.8-14.08,9.16-18.38l6.12-3.15c8.26-4.24,17.35-2.36,20.73,4.2l3.21,6.2c1.44,2.81,5.55,4.6,9.79,4.24,2-.16,6.72-1.09,8.27-6L113,27.25c2.16-6.6,10.52-9.37,19.46-6.51l6.55,2.1c8.83,2.82,14,10.57,11.72,17.63l-2.13,6.66c-1,3,.69,7.18,3.92,9.91,1.52,1.28,5.55,4,10.12,1.6l7.25-3.78c6.2-3.13,14,.82,18.38,9.16l3.15,6.13c4.23,8.23,2.39,17.35-4.22,20.75a5.9,5.9,0,1,1-5.39-10.49,7.38,7.38,0,0,0-.88-4.86l-3.15-6.13a9.09,9.09,0,0,0-3.57-3.85L168,69.1c-7.46,3.89-16.32,2.73-23.17-3s-10-14.92-7.56-22.53l2.13-6.66a7.56,7.56,0,0,0-4.07-2.79L128.82,32c-2.81-.9-4.83-.47-5.24-.21l-1.84,6.84c-2.52,8-9.62,13.47-18.52,14.22-9.09.78-17.63-3.49-21.28-10.59l-3.2-6.19c-.4-.49-2.39-.4-4.86.88l-6.12,3.15c-2.61,1.35-3.73,3.08-3.84,3.56l3.53,6.14c3.88,7.45,2.73,16.32-3,23.15s-14.92,10-22.54,7.56l-6.64-2.12a7.3,7.3,0,0,0-2.8,4L30.33,89c-.9,2.81-.47,4.83-.2,5.25L37,96.05c8.5,2.59,13.47,9.62,14.24,18.54S47.71,132.2,40.6,135.86l-6.22,3.2a7.43,7.43,0,0,0,.88,4.85L38.42,150c1.34,2.58,2.9,3.95,3.57,3.85l6.11-3.53c7.47-3.87,16.33-2.74,23.19,3.05s10,14.92,7.55,22.52l-2.13,6.66a7.5,7.5,0,0,0,4.07,2.8l6.55,2.09c2.81.9,4.83.47,5.24.21l1.82-6.83c2.53-8,9.64-13.47,18.54-14.23,9.07-.78,17.61,3.48,21.29,10.61l3.18,6.19h0a7.53,7.53,0,0,0,4.84-.91l6.11-3.14c2.62-1.36,3.73-3.09,3.85-3.57l-3.54-6.12c-3.88-7.46-2.71-16.34,3.05-23.16s14.91-10,22.53-7.56l6.64,2.12a7.3,7.3,0,0,0,2.8-4.06l2.1-6.55c.9-2.82.49-4.83.22-5.24l-6.84-1.84-.08,0a19.91,19.91,0,0,1-12.19-10.92,24.07,24.07,0,0,1,0-19.38,5.9,5.9,0,0,1,10.79,4.76,12.48,12.48,0,0,0,0,9.76,8.05,8.05,0,0,0,5,4.54h.05l7.8,2.46c6.6,2.14,9.37,10.5,6.5,19.46l-2.1,6.56c-2.82,8.82-10.57,14-17.64,11.7l-6.63-2.12c-3.06-1-7.15.63-9.92,3.92-1.28,1.51-4,5.52-1.6,10.11l3.78,7.26c3.14,6.18-.8,14.06-9.17,18.36l-6.1,3.15c-8.26,4.25-17.36,2.38-20.75-4.18l-3.19-6.2c-1.46-2.83-5.59-4.59-9.8-4.25-2,.17-6.73,1.09-8.28,6l-2.45,7.8C101,198.8,92.68,201.57,83.74,198.71Z"/><path class="cls-2" d="M92.34,158.9a51.6,51.6,0,1,1,48.44-9.22,5.91,5.91,0,0,1-7.47-9.15,39.8,39.8,0,1,0-11.53,6.59,5.9,5.9,0,0,1,4.07,11.08A51.13,51.13,0,0,1,92.34,158.9Z"/><circle class="cls-2" cx="108.07" cy="109.73" r="28.7"/><circle class="cls-3" cx="108.07" cy="109.73" r="12.88"/><path class="cls-4" d="M212.4,282.91l-4.86-.57c-6.55-.78-11.21-5.49-10.58-10.74l.58-4.94c.26-2.24-1.46-4.93-4.09-6.39-1.23-.68-4.39-2-7.29.24l-4.54,3.63c-3.9,3-9.94,1.35-14.1-3.9l-3-3.85c-4.08-5.17-4-11.79.11-15.07l3.93-3.08c1.76-1.39,2.45-4.51,1.62-7.41-.38-1.36-1.67-4.54-5.31-5h0L159,225.2c-4.91-.61-8-6.08-7.19-12.72l.57-4.88c.78-6.55,5.5-11.19,10.75-10.57l4.92.58c2.24.27,4.94-1.45,6.41-4.09.68-1.23,2-4.4-.26-7.27l-3.63-4.56c-3-3.91-1.35-10,3.91-14.1l3.85-3c5.2-4.08,11.81-4,15.06.12l3.09,3.9c1.39,1.77,4.5,2.46,7.42,1.64,1.35-.39,4.54-1.68,5-5.33l.66-5.79c.61-4.91,6.08-8,12.72-7.2l4.86.58c6.55.77,11.21,5.49,10.58,10.73l-.58,4.94c-.27,2.24,1.46,4.93,4.09,6.4,1.24.69,4.42,2,7.29-.25l4.55-3.63c3.91-3,9.94-1.34,14.09,3.9l3,3.86c4.07,5.18,4,11.8-.13,15.08a4.2,4.2,0,0,1-5.2-6.6,5.16,5.16,0,0,0-1.27-3.28l-3-3.86a6.4,6.4,0,0,0-3-2.2l-3.8,3.3c-4.69,3.73-11,4.12-16.61,1s-9-9.07-8.35-14.72l.59-4.95a5.34,5.34,0,0,0-3.23-1.4l-4.86-.57a5.55,5.55,0,0,0-3.69.56l-.35,5a14.71,14.71,0,0,1-11,12.45c-6.25,1.78-12.8,0-16.31-4.51l-3.08-3.89c-.34-.29-1.73,0-3.28,1.27l-3.85,3a5.58,5.58,0,0,0-2.2,3l3.3,3.81a14.72,14.72,0,0,1,1,16.59c-3.16,5.66-9.08,9-14.73,8.35l-4.93-.59a5.2,5.2,0,0,0-1.41,3.22l-.58,4.88a5.53,5.53,0,0,0,.57,3.69l5,.34c6.29.66,10.72,4.9,12.48,11s0,12.78-4.52,16.31l-3.91,3.08a5.26,5.26,0,0,0,1.27,3.26l3,3.85c1.29,1.63,2.57,2.37,3,2.21l3.79-3.3a14.72,14.72,0,0,1,16.62-1c5.65,3.16,9,9.07,8.34,14.72l-.58,4.94a5.27,5.27,0,0,0,3.22,1.4l4.87.58a5.55,5.55,0,0,0,3.69-.57l.34-5a14.73,14.73,0,0,1,11-12.46c6.23-1.78,12.78,0,16.32,4.52l3.07,3.9h0a5.43,5.43,0,0,0,3.27-1.29l3.84-3a5.65,5.65,0,0,0,2.21-3l-3.31-3.81a14.72,14.72,0,0,1-1-16.6c3.15-5.66,9.07-9,14.72-8.34l4.93.58a5.2,5.2,0,0,0,1.41-3.22l.58-4.87a5.62,5.62,0,0,0-.56-3.69l-5-.35h-.07a14.17,14.17,0,0,1-10-6,17.16,17.16,0,0,1-2.65-13.55,4.2,4.2,0,0,1,8.19,1.87,8.88,8.88,0,0,0,1.32,6.82,5.71,5.71,0,0,0,4.13,2.49h0l5.8.66c4.9.6,8,6.07,7.18,12.72l-.58,4.87c-.77,6.55-5.49,11.2-10.74,10.57l-4.92-.58c-2.28-.27-4.91,1.41-6.41,4.09-.69,1.23-2,4.4.26,7.28l3.63,4.56c3,3.9,1.35,9.94-3.92,14.09l-3.84,3c-5.19,4.09-11.81,4-15.07-.11l-3.07-3.9c-1.4-1.78-4.53-2.45-7.43-1.64-1.35.38-4.55,1.67-5,5.33l-.65,5.78C224.51,280.63,219,283.7,212.4,282.91Z"/><path class="cls-4" d="M213.63,248.69a31.49,31.49,0,1,1,27.94-11.16,3.6,3.6,0,0,1-5.54-4.61,24.06,24.06,0,0,0,5.43-12.66,24.3,24.3,0,1,0-27,21.28,24.07,24.07,0,0,0,15.42-3.33,3.6,3.6,0,0,1,3.73,6.17A31.26,31.26,0,0,1,213.63,248.69Z"/><circle class="cls-4" cx="217.33" cy="217.41" r="12.69"/><path class="cls-5" d="M235.15,142.62l-2.93-.34c-3.94-.47-6.73-3.3-6.36-6.46l.35-3c.16-1.35-.88-3-2.46-3.85a3.9,3.9,0,0,0-4.38.15l-2.74,2.18c-2.34,1.83-6,.82-8.48-2.34l-1.82-2.32c-2.46-3.11-2.43-7.09.07-9.06l2.35-1.86a4.32,4.32,0,0,0,1-4.45,3.87,3.87,0,0,0-3.19-3h0l-3.48-.4c-2.95-.37-4.8-3.65-4.32-7.65l.34-2.93c.47-3.94,3.31-6.73,6.46-6.36l3,.35a4.35,4.35,0,0,0,3.85-2.46,3.88,3.88,0,0,0-.16-4.38L210,81.74c-1.82-2.35-.81-6,2.35-8.48l2.32-1.82c3.12-2.46,7.1-2.41,9.06.07l1.85,2.35a4.35,4.35,0,0,0,4.47,1,3.88,3.88,0,0,0,3-3.2l.4-3.49c.37-3,3.66-4.8,7.65-4.32l2.92.34c3.94.47,6.74,3.3,6.37,6.46l-.35,3a4.33,4.33,0,0,0,2.46,3.85,3.92,3.92,0,0,0,4.38-.15l2.74-2.19c2.35-1.82,6-.8,8.47,2.35l1.83,2.32c2.45,3.12,2.42,7.1-.08,9.07a2.52,2.52,0,0,1-3.12-4,3.16,3.16,0,0,0-.77-2l-1.82-2.32a3.86,3.86,0,0,0-1.82-1.33l-2.28,2a8.85,8.85,0,0,1-10,.61c-3.41-1.9-5.42-5.46-5-8.85l.35-3a3.25,3.25,0,0,0-1.94-.84l-2.92-.35a3.42,3.42,0,0,0-2.22.34l-.22,3a8.84,8.84,0,0,1-6.62,7.49c-3.76,1.07-7.7,0-9.82-2.71l-1.85-2.35c-.2-.17-1,0-2,.77l-2.31,1.82a3.35,3.35,0,0,0-1.33,1.82l2,2.29a8.83,8.83,0,0,1,.61,10,9.27,9.27,0,0,1-8.86,5l-3-.35a3.12,3.12,0,0,0-.85,1.93l-.35,2.94a3.36,3.36,0,0,0,.35,2.22l3,.2a8.62,8.62,0,0,1,7.5,6.63c1.06,3.75,0,7.69-2.71,9.81l-2.36,1.86a3.23,3.23,0,0,0,.77,2l1.83,2.32c.77,1,1.54,1.42,1.82,1.33l2.27-2a8.87,8.87,0,0,1,10-.61c3.4,1.9,5.42,5.46,5,8.85l-.35,3a3.25,3.25,0,0,0,1.94.84l2.92.35a3.32,3.32,0,0,0,2.22-.35l.21-3a8.84,8.84,0,0,1,6.63-7.49,9.26,9.26,0,0,1,9.82,2.72l1.84,2.34h0a3.3,3.3,0,0,0,2-.77l2.31-1.82a3.38,3.38,0,0,0,1.32-1.82l-2-2.28a8.85,8.85,0,0,1-.61-10c1.89-3.4,5.45-5.42,8.85-5l3,.35a3.14,3.14,0,0,0,.84-1.93l.35-2.93a3.37,3.37,0,0,0-.33-2.22l-3-.21h0a8.5,8.5,0,0,1-6-3.59,10.31,10.31,0,0,1-1.6-8.15,2.53,2.53,0,0,1,4.93,1.12,5.34,5.34,0,0,0,.79,4.11,3.41,3.41,0,0,0,2.49,1.49h0l3.48.39c2.95.36,4.79,3.65,4.32,7.65l-.35,2.93c-.46,3.94-3.3,6.73-6.46,6.36l-3-.35a4.29,4.29,0,0,0-3.85,2.46A3.86,3.86,0,0,0,264,122l2.18,2.74c1.83,2.35.82,6-2.35,8.48L261.56,135c-3.12,2.46-7.1,2.41-9.06-.07l-1.85-2.34a4.36,4.36,0,0,0-4.47-1,3.89,3.89,0,0,0-3,3.2l-.39,3.48C242.43,141.25,239.14,143.1,235.15,142.62Z"/><path class="cls-5" d="M236.22,119.19a16.07,16.07,0,1,1,14.26-5.7,1.84,1.84,0,1,1-2.82-2.35,12.27,12.27,0,0,0,2.76-6.46,12.4,12.4,0,1,0-13.76,10.86,12.23,12.23,0,0,0,7.86-1.7,1.84,1.84,0,1,1,1.9,3.14A15.92,15.92,0,0,1,236.22,119.19Z"/><path class="cls-6" d="M114.92,260.12l-2.27-.27c-3-.36-5.21-2.55-4.92-5l.27-2.3a3.37,3.37,0,0,0-1.9-3,3,3,0,0,0-3.39.12l-2.12,1.69C98.78,252.8,96,252,94,249.57l-1.41-1.79c-1.9-2.41-1.87-5.49,0-7l1.83-1.44a3.33,3.33,0,0,0,.75-3.44,3,3,0,0,0-2.47-2.32h0l-2.69-.3c-2.28-.29-3.71-2.83-3.35-5.92l.27-2.27c.36-3.05,2.56-5.21,5-4.92l2.29.27a3.34,3.34,0,0,0,3-1.9,3,3,0,0,0-.12-3.38L95.46,213c-1.41-1.82-.62-4.63,1.82-6.55l1.79-1.42c2.42-1.89,5.5-1.86,7,.06l1.44,1.81a3.34,3.34,0,0,0,3.45.77,3,3,0,0,0,2.31-2.48l.31-2.7c.28-2.28,2.82-3.71,5.91-3.35l2.27.27c3,.36,5.21,2.56,4.92,5l-.27,2.3a3.34,3.34,0,0,0,1.9,3,3,3,0,0,0,3.39-.12l2.12-1.68c1.82-1.42,4.62-.63,6.56,1.81l1.41,1.8c1.9,2.41,1.87,5.49-.06,7a2,2,0,0,1-2.42-3.07,2.46,2.46,0,0,0-.59-1.52l-1.41-1.8a3,3,0,0,0-1.41-1l-1.76,1.53a6.85,6.85,0,0,1-7.73.48,7.16,7.16,0,0,1-3.88-6.85l.27-2.3a2.45,2.45,0,0,0-1.5-.66l-2.27-.26a2.55,2.55,0,0,0-1.71.26l-.17,2.34a6.83,6.83,0,0,1-5.12,5.79,7.17,7.17,0,0,1-7.59-2.09L103,207.53c-.16-.13-.8,0-1.52.6l-1.79,1.41a2.6,2.6,0,0,0-1,1.4l1.54,1.77a6.85,6.85,0,0,1,.48,7.72,7.2,7.2,0,0,1-6.86,3.89L91.54,224a2.45,2.45,0,0,0-.66,1.5l-.26,2.27a2.59,2.59,0,0,0,.26,1.72l2.33.16A6.67,6.67,0,0,1,99,234.82a7.18,7.18,0,0,1-2.1,7.59l-1.83,1.43a2.58,2.58,0,0,0,.6,1.52l1.41,1.79c.6.76,1.19,1.1,1.41,1l1.76-1.54a6.85,6.85,0,0,1,7.73-.47,7.19,7.19,0,0,1,3.89,6.85l-.28,2.3a2.53,2.53,0,0,0,1.5.65l2.27.27a2.6,2.6,0,0,0,1.71-.26l.16-2.34a6.87,6.87,0,0,1,5.13-5.8,7.18,7.18,0,0,1,7.6,2.1l1.42,1.82h0a2.55,2.55,0,0,0,1.52-.6l1.79-1.41a2.64,2.64,0,0,0,1-1.4l-1.54-1.77a6.83,6.83,0,0,1-.47-7.73,7.17,7.17,0,0,1,6.85-3.88l2.29.27a2.37,2.37,0,0,0,.66-1.49l.26-2.27a2.52,2.52,0,0,0-.26-1.72l-2.34-.16h0a6.57,6.57,0,0,1-4.65-2.78,7.93,7.93,0,0,1-1.23-6.3,1.94,1.94,0,0,1,2.34-1.47,2,2,0,0,1,1.47,2.34,4.13,4.13,0,0,0,.61,3.18,2.65,2.65,0,0,0,1.92,1.15h0l2.69.31c2.28.28,3.71,2.82,3.35,5.92l-.27,2.26c-.36,3.05-2.56,5.21-5,4.92l-2.29-.27a3.32,3.32,0,0,0-3,1.91,3,3,0,0,0,.12,3.38l1.69,2.13c1.41,1.81.62,4.62-1.83,6.55l-1.78,1.41c-2.42,1.9-5.5,1.87-7,0l-1.43-1.82a3.4,3.4,0,0,0-3.46-.76,3,3,0,0,0-2.31,2.48l-.3,2.69C120.55,259.06,118,260.49,114.92,260.12Z"/><circle class="cls-7" cx="117.21" cy="229.64" r="11.38"/></svg>