<svg id="Layer_1" data-name="Layer 1" xmlns="http://www.w3.org/2000/svg" viewBox="0 0 300 300"><defs><style>.cls-1{fill:none;}.cls-2{fill:#000239;}.cls-3{fill:#02afbb;}</style></defs><rect class="cls-1" x="0.04" width="300" height="300"/><path class="cls-2" d="M114.88,279.38a8.28,8.28,0,0,1-3.29-.68L26.35,242.16a8.36,8.36,0,0,1-5.07-7.68V37.28A8.36,8.36,0,0,1,32.93,29.6l85.23,36.5a8.36,8.36,0,0,1,5.08,7.69V164.6a8.37,8.37,0,1,1-16.73,0V79.3L38,50V229l68.5,29.37V223.7a8.37,8.37,0,1,1,16.73,0V271a8.36,8.36,0,0,1-8.36,8.37Z"/><path class="cls-2" d="M272.77,268.38a8.18,8.18,0,0,1-3.37-.72l-83.12-36.5a8.36,8.36,0,0,1-5-7.66V192.25a8.37,8.37,0,1,1,16.73,0V218l66.38,29.16V68.25L198,39.09v95.06a8.37,8.37,0,1,1-16.73,0V26.28a8.34,8.34,0,0,1,3.79-7,8.12,8.12,0,0,1,7.94-.65l83.12,36.5a8.35,8.35,0,0,1,5,7.65V260a8.4,8.4,0,0,1-8.37,8.37Z"/><path class="cls-2" d="M114.88,279.38a8.37,8.37,0,0,1-4.5-15.43l74.78-47.51a8.37,8.37,0,0,1,9,14.13l-74.78,47.51A8.4,8.4,0,0,1,114.88,279.38Z"/><path class="cls-2" d="M114.88,82.15a8.37,8.37,0,0,1-4.5-15.43l74.78-47.51a8.37,8.37,0,1,1,9,14.13L119.37,80.85A8.4,8.4,0,0,1,114.88,82.15Z"/><path class="cls-3" d="M75.15,220.59a11.26,11.26,0,0,1-8-3.34,11.3,11.3,0,0,1,0-16,11.5,11.5,0,0,1,16,0,11.3,11.3,0,0,1,0,16A10.69,10.69,0,0,1,75.15,220.59Z"/><path class="cls-3" d="M95.83,200.91a11.16,11.16,0,0,1,6.33-14.67h0a11.31,11.31,0,0,1,14.67,6.17h0a11.43,11.43,0,0,1-6.33,14.83h0a12.46,12.46,0,0,1-4.17.85h0A11.27,11.27,0,0,1,95.83,200.91Zm31-12.51a11.52,11.52,0,0,1,6.35-14.67h0A11.51,11.51,0,0,1,148,179.9h0a11.43,11.43,0,0,1-6.34,14.84h0a12.34,12.34,0,0,1-4.16.84h0A11.53,11.53,0,0,1,126.83,188.4ZM158,175.9a11.26,11.26,0,0,1,6.34-14.67h0A11.32,11.32,0,0,1,179,167.4h0a11.48,11.48,0,0,1-6.17,14.83h0a13.12,13.12,0,0,1-4.35.85h0A11.31,11.31,0,0,1,158,175.9Zm31.18-12.5a11.32,11.32,0,0,1,6.17-14.67h0a11.48,11.48,0,0,1,14.83,6.17h0a11.39,11.39,0,0,1-6.33,14.83h0a12.36,12.36,0,0,1-4.17.85h0A11.15,11.15,0,0,1,189.18,163.4Z"/><path class="cls-3" d="M230.86,158.07a11.2,11.2,0,0,1-8-3.34,10.51,10.51,0,0,1-3.34-8,11.52,11.52,0,0,1,3.16-8c4.35-4.17,11.84-4.17,16,0a10.89,10.89,0,0,1,3.34,8,11,11,0,0,1-3.16,8A11.86,11.86,0,0,1,230.86,158.07Z"/><path class="cls-3" d="M252.82,82.22c-7.42-15.93-26.88-16.12-36.2-6.68-16,16.28,5.51,40.8,15.58,55.26C242.58,116.83,259.87,97.33,252.82,82.22Zm-20.2,19.7a11.33,11.33,0,1,1,11.31-11.33A11.33,11.33,0,0,1,232.62,101.92Z"/><path class="cls-3" d="M93.12,141.16c-7.44-15.93-26.89-16.12-36.24-6.65-16,16.25,5.54,40.8,15.6,55.26C82.87,175.8,100.16,156.3,93.12,141.16ZM72.9,160.89a11.33,11.33,0,1,1,11.33-11.33A11.33,11.33,0,0,1,72.9,160.89Z"/><rect class="cls-1" x="0.04" width="300" height="300"/></svg>