<svg id="Layer_1" data-name="Layer 1" xmlns="http://www.w3.org/2000/svg" viewBox="0 0 300 300"><defs><style>.cls-1{fill:#02afbb;}.cls-2{fill:none;}.cls-3{fill:#000239;}</style></defs><g id="pOgHZZ"><path class="cls-1" d="M109.41,119.74c0-10.53,0-21.06,0-31.59.09-17.8,12.11-32.81,29.48-36.1,11-2.08,21.89-1.44,31.63,5,10.95,7.23,16.82,17.51,16.94,30.66.18,21.34.1,42.68,0,64A36.71,36.71,0,0,1,151,188.29c-5.55.05-11.06-.07-16.42-1.87a36.84,36.84,0,0,1-25.14-35.22C109.37,140.71,109.41,130.23,109.41,119.74Zm14.77,0c0,10.62,0,21.24,0,31.86A22,22,0,0,0,139,172.31c3.94,1.4,8,1.24,12.06,1.19a22,22,0,0,0,21.72-21.77q.1-32,0-64a22,22,0,0,0-13.94-20.2c-3.93-1.57-8-1.57-12.13-1.55-12.89.08-22.49,9.69-22.49,22.57Q124.18,104.14,124.18,119.72Z"/><path class="cls-1" d="M155.89,216.42v23.45c.53,0,1,.06,1.51.06h15c4.51,0,7.83,3.2,7.78,7.43a7.41,7.41,0,0,1-7.77,7.32H124.42a7.37,7.37,0,0,1-2.15-14.49,10.16,10.16,0,0,1,2.47-.25c4.89,0,9.79,0,14.69,0H141c0-.56.1-1,.1-1.36,0-7,0-14,0-20.92,0-1-.26-1.35-1.27-1.49A68.87,68.87,0,0,1,80.54,159.9a77.9,77.9,0,0,1-1-17,7.36,7.36,0,0,1,14.72.41,71.54,71.54,0,0,0,1.65,17.74,54.22,54.22,0,0,0,106.1-4.8c.71-4.29.52-8.74.72-13.12a7.22,7.22,0,0,1,3.91-6.42A7,7,0,0,1,214,137a6.85,6.85,0,0,1,3.42,5.7c2.12,38.93-25.09,67.41-56.67,73C159.16,215.92,157.57,216.15,155.89,216.42Z"/></g><rect class="cls-2" x="0.04" width="300" height="300"/><path class="cls-3" d="M149.85,289.92C73.86,289.92,12,228.09,12,152.09S73.86,14.31,149.85,14.31A136.77,136.77,0,0,1,247.3,54.66a8.81,8.81,0,0,1,0,12.46L81.4,233.05a8.82,8.82,0,0,1-12.48-12.46L228.37,61.11a120.18,120.18,0,1,0,21,23.67A8.82,8.82,0,0,1,264,74.89a137,137,0,0,1,23.66,77.2C287.68,228.09,225.84,289.92,149.85,289.92Z"/><circle class="cls-1" cx="138.53" cy="80.36" r="6.85"/><circle class="cls-1" cx="157.22" cy="80.36" r="6.85"/><circle class="cls-1" cx="138.53" cy="98.68" r="6.85"/><circle class="cls-1" cx="157.22" cy="98.68" r="6.85"/></svg>