<svg id="Layer_1" data-name="Layer 1" xmlns="http://www.w3.org/2000/svg" viewBox="0 0 300 300"><defs><style>.cls-1{fill:#02afbb;stroke:#02afbb;stroke-miterlimit:10;stroke-width:5.42px;}.cls-2{fill:none;}.cls-3{fill:#000239;}</style></defs><path class="cls-1" d="M183.75,239.3H120.44a22.59,22.59,0,0,1-22.56-22.56v-134a22.6,22.6,0,0,1,22.56-22.56h63.31a22.6,22.6,0,0,1,22.56,22.56v134A22.59,22.59,0,0,1,183.75,239.3ZM120.44,71.68a11.1,11.1,0,0,0-11.09,11.09v134a11.1,11.1,0,0,0,11.09,11.1h63.31a11.1,11.1,0,0,0,11.09-11.1v-134a11.1,11.1,0,0,0-11.09-11.09Z"/><path class="cls-1" d="M179.19,195.44H125.43a5.74,5.74,0,0,1,0-11.47h53.76a5.74,5.74,0,0,1,0,11.47Z"/><path class="cls-1" d="M179.19,97.9H125.43a5.74,5.74,0,0,1,0-11.47h53.76a5.74,5.74,0,0,1,0,11.47Z"/><path class="cls-1" d="M158.74,218.26H145.45a5.74,5.74,0,0,1,0-11.47h13.29a5.74,5.74,0,0,1,0,11.47Z"/><rect class="cls-2" x="0.04" width="300" height="300"/><path class="cls-3" d="M149.85,289.92C73.86,289.92,12,228.09,12,152.09S73.86,14.31,149.85,14.31A136.77,136.77,0,0,1,247.3,54.66a8.81,8.81,0,0,1,0,12.46L81.4,233.05a8.82,8.82,0,0,1-12.48-12.46L228.37,61.11a120.18,120.18,0,1,0,21,23.67A8.82,8.82,0,0,1,264,74.89a137,137,0,0,1,23.66,77.2C287.68,228.09,225.84,289.92,149.85,289.92Z"/></svg>