<svg id="Layer_1" data-name="Layer 1" xmlns="http://www.w3.org/2000/svg" viewBox="0 0 300 300"><defs><style>.cls-1{fill:none;}.cls-2{fill:#02afbb;}.cls-3{fill:#000239;}</style></defs><rect class="cls-1" x="0.04" width="300" height="300"/><g id="_5EIt2J.tif" data-name="5EIt2J.tif"><path class="cls-2" d="M181.82,206.3h-97c-7.59-2.35-14.57-4.45-14.93-14.86V116.05c0-12.33,5.2-14.84,23-14.84q42.9,0,85.8,0c11,0,18,7,18.07,17.86.05,5.74,0,11.48,0,18.39,10.25-9,19.59-17.06,28.8-25.29,3.35-3,6.74-5.41,11.41-3.36,4.9,2.15,5.39,6.5,5.37,11.14,0,18.05,0,36.1,0,54.15,0,5.48.6,11.07-.25,16.42a14.65,14.65,0,0,1-5.27,8.34c-3.16,2.45-6.75.75-9.59-1.84q-5.1-4.66-10.19-9.36l-20.26-18.6V184C196.71,197.8,194.89,206.3,181.82,206.3Zm-2.42-87.76H88v69.79H179.4Zm25.54,34.68L224.32,171V136.19Z"/></g><path class="cls-3" d="M149.85,289.92C73.86,289.92,12,228.09,12,152.09S73.86,14.31,149.85,14.31A136.77,136.77,0,0,1,247.3,54.66a8.81,8.81,0,0,1,0,12.46L81.4,233.05a8.82,8.82,0,0,1-12.48-12.46L228.37,61.11a120.18,120.18,0,1,0,21,23.67A8.82,8.82,0,0,1,264,74.89a137,137,0,0,1,23.66,77.2C287.68,228.09,225.84,289.92,149.85,289.92Z"/></svg>