<svg id="Layer_1" data-name="Layer 1" xmlns="http://www.w3.org/2000/svg" viewBox="0 0 300 300"><defs><style>.cls-1,.cls-2,.cls-3{fill:#02afbb;stroke:#02afbb;stroke-linecap:round;stroke-linejoin:round;}.cls-1{stroke-width:4.14px;}.cls-2{stroke-width:0.76px;}.cls-3{stroke-width:9.18px;}.cls-4{fill:none;}.cls-5{fill:#000239;}</style></defs><g id="YWBJwL"><path class="cls-1" d="M248.89,191.38V156.06H73.42v35.32ZM81.56,164.23h114.5v19H81.56Z"/><path class="cls-2" d="M99.61,94.9a46,46,0,0,0-11.74,3,47.68,47.68,0,0,0-25.12,22.9,46.52,46.52,0,0,0-5.22,22.52c.08,4.73,0-3.49,0,1.25a4,4,0,0,0,3.61,4,4,4,0,0,0,4.39-3,5.41,5.41,0,0,0,.14-1.45c0-4.71-.09,3.54,0-1.17.4-17.12,8.4-29.42,23.79-36.85A34.57,34.57,0,0,1,105,102.74,4.23,4.23,0,0,0,109,96.57,23.28,23.28,0,0,1,126.2,63.83a32.43,32.43,0,0,1,3.83-.32,4.05,4.05,0,0,0,4.11-4.22,4,4,0,0,0-4.26-3.95c-13.31.49-22.92,6.76-28.58,18.78a29.82,29.82,0,0,0-1.75,20.32C99.58,94.55,99.58,94.68,99.61,94.9Z"/><path class="cls-2" d="M114.54,111.09c-4.5,0-9-.14-13.49,0a29.35,29.35,0,0,0-17.67,6.73A30.92,30.92,0,0,0,71.44,143c0,4.74,0-3.48,0,1.26a4.08,4.08,0,0,0,5.59,4,4,4,0,0,0,2.59-3.86v-2A21.9,21.9,0,0,1,81.19,134a22.84,22.84,0,0,1,16.75-14.23,24.62,24.62,0,0,1,5.36-.54c8.41-.06,16.82,0,25.23,0a18,18,0,0,0,2.3-35.72,11.65,11.65,0,0,0-3.28-.1,4,4,0,0,0-3.47,4.17,4.14,4.14,0,0,0,4.08,3.93,9.77,9.77,0,0,1,9.52,7.43c1.52,5.53-2.74,11.75-8.47,12-4.88.22-9.78,0-14.67,0Z"/><line class="cls-3" x1="61.58" y1="158.34" x2="61.57" y2="189.87"/></g><rect class="cls-4" x="0.04" width="300" height="300"/><path class="cls-5" d="M149.85,289.92C73.86,289.92,12,228.09,12,152.09S73.86,14.31,149.85,14.31A136.77,136.77,0,0,1,247.3,54.66a8.81,8.81,0,0,1,0,12.46L81.4,233.05a8.82,8.82,0,0,1-12.48-12.46L228.37,61.11a120.18,120.18,0,1,0,21,23.67A8.82,8.82,0,0,1,264,74.89a137,137,0,0,1,23.66,77.2C287.68,228.09,225.84,289.92,149.85,289.92Z"/></svg>