<svg id="Layer_1" data-name="Layer 1" xmlns="http://www.w3.org/2000/svg" viewBox="0 0 300 300"><defs><style>.cls-1{fill:none;}.cls-2,.cls-4{fill:#02afbb;stroke:#02afbb;}.cls-2,.cls-3,.cls-4,.cls-5{stroke-miterlimit:10;}.cls-2,.cls-3{stroke-width:3px;}.cls-3,.cls-5{fill:#000239;stroke:#000239;}</style></defs><rect class="cls-1" x="0.04" width="300" height="300"/><path class="cls-2" d="M210.6,139.13a4.36,4.36,0,0,0,5.23-4.66l-2.35-24.85a58.44,58.44,0,1,0-93.26-69.68,4.34,4.34,0,1,0,7.38,4.57,49.76,49.76,0,1,1,78.25,60.57,4.36,4.36,0,0,0-1.19,3.43L206.4,127l-16.15-9.17a4.34,4.34,0,0,0-3.59-.31,49.88,49.88,0,0,1-30.48.92,4.49,4.49,0,0,0-5.38,3,4.35,4.35,0,0,0,3,5.37,59.68,59.68,0,0,0,33.88-.45l21.71,12.32A4.18,4.18,0,0,0,210.6,139.13Z"/><path class="cls-3" d="M87.42,138.54a4.86,4.86,0,0,0,1.31-.55l15.66-9.5A45.73,45.73,0,1,0,82.81,115.4l-1.18,18.28a4.7,4.7,0,0,0,5.79,4.86Zm20.26-89.2a36.22,36.22,0,1,1-2.49,69.6,4.71,4.71,0,0,0-3.88.45l-9.74,5.91.74-11.37a4.69,4.69,0,0,0-1.4-3.65,36.14,36.14,0,0,1,16.77-60.94Z"/><path class="cls-2" d="M227.18,229.6a4.6,4.6,0,0,1-2.28-.6c-12.57-7.18-29.74-19.27-33.75-41.23-1.39-7.66-.22-19.94,7.61-29.32,4.36-5.22,12.48-11.44,26.4-11.44,20.81,0,31.11,13.73,33.82,26.58,3.26,15.51-3.55,35.66-22.87,44.16a4.57,4.57,0,0,1-3.69-8.37,30.48,30.48,0,0,0,17.6-33.9c-2.55-12.09-11.83-19.31-24.86-19.31-8.34,0-14.86,2.74-19.37,8.14-5.44,6.51-6.75,15.66-5.63,21.83,2.52,13.85,11.83,24.94,29.29,34.92a4.57,4.57,0,0,1-2.27,8.54Z"/><path class="cls-2" d="M285.21,290H164.55a4.58,4.58,0,0,1-4.58-4.58c0-14.9.44-35.82,4.19-45.59,5.54-14.51,29.56-23.73,32.28-24.73a4.54,4.54,0,0,1,5.74,2.38c5,10.84,13.49,17.31,22.77,17.31s17.44-6.31,22.5-17.31a4.53,4.53,0,0,1,5.74-2.38c2.72,1,26.73,10.22,32.3,24.73,3.49,9.09,3.32,18.86,3.17,27.47l-.05,4.66a4.58,4.58,0,0,1-9.15,0l.06-4.82c.13-7.78.28-16.6-2.57-24-2.92-7.6-15.5-14.5-23.19-17.9C247,237,236.51,244,225,244h0c-11.71,0-22.33-6.92-29.07-18.73-7.68,3.4-20.27,10.29-23.18,17.89-2.2,5.75-3.4,18.43-3.56,37.74H285.21a4.58,4.58,0,1,1,0,9.16Z"/><path class="cls-4" d="M263.61,270.24H242.49a4.58,4.58,0,0,1-4.58-4.58v-13.9a4.58,4.58,0,0,1,4.58-4.58h21.12a4.58,4.58,0,0,1,0,9.15H247.07v4.76h16.54a4.58,4.58,0,0,1,0,9.15Z"/><path class="cls-3" d="M80.11,229.6a4.57,4.57,0,0,1-2.27-.6c-12.57-7.18-29.74-19.27-33.75-41.23-1.39-7.65-.22-19.92,7.61-29.31C56.05,153.25,64.17,147,78.1,147c20.81,0,31.11,13.72,33.81,26.57,3.26,15.5-3.56,35.65-22.87,44.14a4.57,4.57,0,1,1-3.68-8.37A30.46,30.46,0,0,0,103,175.48c-2.54-12.08-11.83-19.29-24.85-19.29-8.34,0-14.86,2.74-19.37,8.14C53.29,170.84,52,180,53.1,186.14c2.52,13.85,11.82,24.94,29.28,34.92a4.57,4.57,0,0,1-2.27,8.54Z"/><path class="cls-3" d="M138.15,290H17.48a4.58,4.58,0,0,1-4.57-4.58c0-14.9.43-35.82,4.18-45.59,5.55-14.52,29.57-23.72,32.3-24.71a4.56,4.56,0,0,1,5.73,2.37c.14.32,12.8,27.75,22.64,43.43,9.84-15.69,22.48-43.11,22.63-43.43a4.54,4.54,0,0,1,5.73-2.37c2.72,1,26.74,10.19,32.31,24.71,3.48,9.11,3.31,18.89,3.17,27.51l0,4.62a4.58,4.58,0,0,1-9.16,0l.06-4.78c.13-7.79.28-16.62-2.57-24.07s-15.35-14.42-23-17.83c-4.63,9.8-16.83,34.93-25.41,46.53a4.74,4.74,0,0,1-7.36,0c-8.58-11.6-20.79-36.72-25.42-46.52-7.69,3.41-20.14,10.26-23,17.81-2.21,5.75-3.4,18.43-3.56,37.74H138.15a4.58,4.58,0,0,1,0,9.16Z"/><path class="cls-3" d="M77.76,273.68a4.58,4.58,0,0,1-4.58-4.58V238.61a4.58,4.58,0,0,1,9.16,0V269.1A4.58,4.58,0,0,1,77.76,273.68Z"/><path class="cls-5" d="M119.38,265.15H105.2a4.58,4.58,0,0,1,0-9.16h14.18a4.58,4.58,0,0,1,0,9.16Z"/></svg>