<svg width="278" height="279" viewBox="0 0 278 279" fill="none" xmlns="http://www.w3.org/2000/svg">
<path d="M138.96 278.13C215.567 278.13 277.67 216.027 277.67 139.42C277.67 62.8125 215.567 0.709961 138.96 0.709961C62.3526 0.709961 0.25 62.8125 0.25 139.42C0.25 216.027 62.3526 278.13 138.96 278.13Z" fill="#02AFBB"/>
<path d="M132.86 181.26C123.2 181.26 115.04 189.37 115.04 198.97C115.04 208.69 123.2 216.9 132.86 216.9C142.46 216.9 150.57 208.69 150.57 198.97C150.58 189.37 142.46 181.26 132.86 181.26Z" fill="white"/>
<path d="M133.86 64.1399C128.81 64.1399 123.04 64.5901 118.03 65.3601C116.02 65.6701 114.54 67.3999 114.54 69.4399V86.1699C114.54 87.3399 115.04 88.45 115.9 89.24C116.77 90.02 117.93 90.4 119.09 90.28C123.21 89.85 128.43 89.5901 133.05 89.5901C152.37 89.5901 163.9 96.8999 163.9 109.14C163.9 128.13 141.84 130.19 132.35 130.19H125.46C123.18 130.19 121.33 132.04 121.33 134.32V165.9C121.33 168.18 123.18 170.03 125.46 170.03H140.25C142.45 170.03 144.27 168.3 144.37 166.1L145 153.17C173.93 148.91 190.43 132.75 190.43 108.45C190.44 81.53 168.23 64.1399 133.86 64.1399Z" fill="white"/>
<path d="M239.56 66.5199C238.18 64.5999 236.01 63.4299 233.44 63.2099C230.47 62.9499 227.37 64.06 225.34 66.07C225.34 66.07 220.85 70.78 224.35 75.35C227.21 79.09 230.73 85.7299 230.73 85.7299C243.44 107.7 248.04 131.78 244.04 155.46C240.35 177.29 229.26 198.28 212.82 214.56C196.37 230.85 175.25 241.74 153.35 245.24C129.23 249.09 104.81 244.05 82.75 230.68C22.52 193.18 21.87 129.6 46.76 86.3898C60.39 62.7298 81.13 45.1099 105.16 36.7899C132.17 27.4299 161.45 30.4499 189.82 45.5199C196.44 49.1699 202.72 53.5798 208.49 58.6298C211.36 61.9198 214.95 63.9199 218.11 63.9799C220.44 64.0499 222.53 63.0999 224.29 61.2199L224.37 61.12C226.62 58.02 226.83 54.5499 225 50.7999C216.94 34.2399 169.54 16.4799 158.43 16.0199C120.83 10.4899 87.13 18.8599 60.96 40.2399C37.7 59.2399 21.99 87.2199 16.72 119.03C11.45 150.83 17.28 182.39 33.16 207.87C51.03 236.57 80.25 255.38 117.63 262.26C125.16 263.75 132.71 264.48 140.2 264.48C157.64 264.48 174.78 260.48 190.69 252.61C211.78 242.17 229.85 225.56 242.93 204.56C256.03 183.53 262.99 159.94 263.06 136.35C263.15 110.94 255.02 86.7899 239.56 66.5199Z" fill="white"/>
</svg>
