<svg id="Layer_1" data-name="Layer 1" xmlns="http://www.w3.org/2000/svg" viewBox="0 0 300 300"><defs><style>.cls-1{fill:none;}.cls-2{fill:#000239;}.cls-3{fill:#02afbb;}</style></defs><rect class="cls-1" x="0.04" width="300" height="300"/><path class="cls-2" d="M180.5,225A102.78,102.78,0,0,1,107.82,49.57,102.77,102.77,0,0,1,253.15,194.92,102,102,0,0,1,180.5,225Zm0-188.85a86.05,86.05,0,1,0,0,172.1,86.06,86.06,0,0,0,60.83-146.9A85.54,85.54,0,0,0,180.49,36.19Z"/><path class="cls-3" d="M238,130.61a8.37,8.37,0,0,1-8.37-8.38,49.17,49.17,0,0,0-98.33,0,8.37,8.37,0,1,1-16.74,0,65.91,65.91,0,0,1,131.81,0A8.37,8.37,0,0,1,238,130.61Z"/><path class="cls-2" d="M54,281a31.41,31.41,0,0,1-22.35-9.22c-13-13-13-33-.7-45.37l43.32-43.28A8.36,8.36,0,0,1,86.05,195l-43.3,43.29a14.92,14.92,0,0,0,0,21c3.47,3.45,7.21,5,11.21,5h0A14.71,14.71,0,0,0,64.44,260l43.28-43.28a8.36,8.36,0,0,1,11.83,11.82L76.28,271.81A31.21,31.21,0,0,1,54,281Z"/></svg>