<svg id="Layer_1" data-name="Layer 1" xmlns="http://www.w3.org/2000/svg" viewBox="0 0 300 300"><defs><style>.cls-1,.cls-3,.cls-4{fill:none;}.cls-2{fill:#000239;}.cls-3,.cls-4{stroke:#02afbb;stroke-linecap:round;stroke-miterlimit:10;}.cls-3{stroke-width:18px;}.cls-4{stroke-width:16.09px;}</style></defs><rect class="cls-1" x="0.04" width="300" height="300"/><path class="cls-2" d="M153.29,289.32c-75.55,0-137-61.46-137-137A136.77,136.77,0,0,1,128.93,17.45,8.79,8.79,0,1,1,132,34.75a119.57,119.57,0,1,0,21.25-1.88,8.79,8.79,0,0,1,0-17.58c75.55,0,137,61.47,137,137S228.84,289.32,153.29,289.32Z"/><path class="cls-2" d="M281.52,161.09h-22.7a8.79,8.79,0,1,1,0-17.57h22.7a8.79,8.79,0,1,1,0,17.57Z"/><path class="cls-2" d="M47.77,161.09H25.07a8.79,8.79,0,1,1,0-17.57h22.7a8.79,8.79,0,1,1,0,17.57Z"/><path class="cls-2" d="M153.29,289.32a8.78,8.78,0,0,1-8.78-8.79v-22.7a8.79,8.79,0,1,1,17.57,0v22.7A8.78,8.78,0,0,1,153.29,289.32Z"/><path class="cls-2" d="M94.65,71a8.79,8.79,0,0,1-6.24-15l22.07-22.1L79.33,32.3A8.77,8.77,0,0,1,71,23.09c.24-4.82,3.79-9,9.21-8.33l50.92,2.57a8.76,8.76,0,0,1,5.76,15s-31.84,31.86-36,36.06A8.79,8.79,0,0,1,94.65,71Z"/><line class="cls-3" x1="153.76" y1="154.69" x2="246.87" y2="104.94"/><path class="cls-4" d="M154.17,54.57A98.37,98.37,0,0,1,224,83.48"/><path class="cls-4" d="M154.17,79.47a73.44,73.44,0,0,1,45.45,15.66"/></svg>