<svg id="Layer_1" data-name="Layer 1" xmlns="http://www.w3.org/2000/svg" viewBox="0 0 300 300"><defs><style>.cls-1{fill:none;}.cls-2{fill:#000239;}</style></defs><rect class="cls-1" x="0.04" width="300" height="300"/><path class="cls-2" d="M252.92,164.93a7.7,7.7,0,0,1-7-11c3.74-8,6.18-20.57,6.95-29.52a7.82,7.82,0,0,1,8.31-7,7.7,7.7,0,0,1,7,8.31c-.86,10-3.49,24.43-8.36,34.76A7.67,7.67,0,0,1,252.92,164.93Z"/><path class="cls-2" d="M39.52,113.49a7.7,7.7,0,0,1-5.43-13.14l61-61a7.69,7.69,0,0,1,10.86,10.88l-61,61A7.65,7.65,0,0,1,39.52,113.49Z"/><path class="cls-2" d="M172.62,273.91a7.7,7.7,0,0,1-3.07-14.75c4.45-1.93,8.57-6.71,6.8-14.34a7.69,7.69,0,0,1,11.92-8c4.82,3.41,9.35,3.24,12.44-.43,3.78-4.51,3.89-12.8-3.22-20l-.05,0h0a7.69,7.69,0,0,1,10.87-10.87l3,3c4.09,4.1,8.58,5.74,12.81,4.64a10.49,10.49,0,0,0,7.32-7.32c1.13-4.15-.52-8.69-4.62-12.79h0l-3-3.05a7.69,7.69,0,0,1,10.87-10.88l3.06,3.05c3.55,3.53,7.45,4.82,11.23,3.82a10.56,10.56,0,0,0,7.39-7.27c1-3.7-.39-7.55-4-11.16L195,110.2c-3.43-3.43-9-5.17-15.3-4.78-6,.38-11.77,2.64-15,5.9L144.6,131.4c-9.16,9.18-20.84,12.73-31.93,9.75-9.44-2.53-16.77-9.58-19.14-18.42-1.48-5.53-2.26-16.53,9.24-28l22.47-22.48c25-25,61.12-34.15,92.1-23.42a7.69,7.69,0,1,1-5,14.54c-25.47-8.79-55.35-1.06-76.2,19.76l-22.47,22.48c-4.46,4.47-6.32,9.14-5.24,13.16.94,3.54,4.1,6.43,8.25,7.54,5.72,1.52,11.88-.59,17.08-5.76l20.09-20.09c5.88-5.89,15.21-9.76,24.94-10.37,10.76-.72,20.57,2.71,27.13,9.25l57.33,57.34c7.5,7.5,10.41,17,8,26a25.78,25.78,0,0,1-24,19,25.21,25.21,0,0,1-.82,8.13,25.85,25.85,0,0,1-18.2,18.2,25.18,25.18,0,0,1-9.45.71,27.23,27.23,0,0,1-6.23,17.55,23.28,23.28,0,0,1-21,8.16,26.75,26.75,0,0,1-15.79,18.85A7.74,7.74,0,0,1,172.62,273.91Z"/><path class="cls-2" d="M51,164.75a7.67,7.67,0,0,1-7-4.44c-4.79-10.23-7.41-24.57-8.26-34.57a7.69,7.69,0,0,1,15.33-1.3c.76,8.94,3.17,21.48,6.85,29.36a7.69,7.69,0,0,1-7,10.95Z"/><path class="cls-2" d="M152,69.57a7.66,7.66,0,0,1-3.61-.9c-18.08-9.58-38.73-11.54-56.69-5.32a7.69,7.69,0,1,1-5-14.54c21.94-7.61,47.05-5.32,68.93,6.27A7.7,7.7,0,0,1,152,69.57Z"/><path class="cls-2" d="M57.6,201.69a25.48,25.48,0,0,1-6.51-.86,25.81,25.81,0,0,1-18.26-18.15c-2.43-9.05.49-18.53,8-26L53.49,144c12.69-12.7,28.46-10.31,37.41-1.35s11.56,25.13-1,37.74A7.7,7.7,0,0,1,79,169.51c5.89-5.89,4.76-12.28,1-16-3.44-3.45-9.36-4.93-15.67,1.36L51.69,167.54c-3.61,3.61-5,7.46-4,11.16A10.49,10.49,0,0,0,55.08,186c3.81,1,7.7-.29,11.24-3.81A7.69,7.69,0,0,1,77.19,193C71.53,198.69,64.64,201.69,57.6,201.69Z"/><path class="cls-2" d="M83.11,227.2a26,26,0,0,1-23.72-15.94c-4.06-9.82-1.47-20.7,6.94-29.11L79,169.5c7.27-7.28,14.73-8.82,19.68-8.82a25.74,25.74,0,0,1,23.4,15.94c4.13,10,1.62,20.92-6.73,29.26l-12.64,12.67C97,224.21,90.27,227.2,83.11,227.2Zm15.57-51.13c-3,0-6,1.49-8.8,4.31L77.2,193c-4,4-5.25,8.35-3.59,12.33,2.74,6.62,11.85,8.67,18.22,2.31L104.46,195c5.29-5.27,4.4-10.09,3.4-12.5A10.19,10.19,0,0,0,98.68,176.07Z"/><path class="cls-2" d="M108.62,252.7a25.27,25.27,0,0,1-6.49-.86,25.82,25.82,0,0,1-18.28-18.15c-2.43-9,.48-18.54,8-26a7.69,7.69,0,0,1,10.87,10.88c-3.6,3.6-5,7.47-4,11.16a10.54,10.54,0,0,0,7.38,7.27c3.9,1,7.7-.3,11.22-3.81L130,220.49c3.51-3.52,4.83-7.39,3.81-11.22a10.52,10.52,0,0,0-7.27-7.39c-3.71-1-7.56.38-11.18,4A7.69,7.69,0,1,1,104.48,195c7.5-7.51,17-10.44,26.05-8a25.84,25.84,0,0,1,18.14,18.28c2.44,9.17-.4,18.67-7.82,26.07L128.19,244C122.55,249.7,115.65,252.7,108.62,252.7Z"/><path class="cls-2" d="M137,275.36a26,26,0,0,1-18.23-7.55,25,25,0,0,1-7.47-17.51c-.05-5,1.44-12.56,8.82-19.93a7,7,0,0,1,5.46-2.25,7.69,7.69,0,0,1,2.25-5.45c7.5-7.5,16.88-10.46,26-8A25.85,25.85,0,0,1,172,233c2.45,9.17-.39,18.69-7.8,26.09l-7.73,7.72C150.42,272.83,143.52,275.36,137,275.36Zm-3.76-39.56a7.67,7.67,0,0,1-2.25,5.45c-2.85,2.85-4.33,5.92-4.3,8.91a9.64,9.64,0,0,0,2.95,6.77c3.71,3.71,10.09,4.84,16-1.05l7.73-7.72c3.52-3.52,4.84-7.4,3.8-11.23a10.52,10.52,0,0,0-7.27-7.39c-3.67-1-7.55.37-11.16,4C137.19,235.06,134.87,236.19,133.23,235.8Z"/><path class="cls-2" d="M202.88,218.61a7.69,7.69,0,0,1-5.44-2.25l-18.83-18.82a7.69,7.69,0,1,1,10.87-10.88l18.83,18.82a7.69,7.69,0,0,1-5.43,13.13Z"/><path class="cls-2" d="M229.24,192.23A7.64,7.64,0,0,1,223.8,190L205,171.16a7.69,7.69,0,1,1,10.87-10.88l18.83,18.82a7.69,7.69,0,0,1-5.43,13.13Z"/><path class="cls-2" d="M264.52,113.49a7.69,7.69,0,0,1-5.43-2.25l-61-61A7.69,7.69,0,1,1,209,39.38l61,61a7.7,7.7,0,0,1-5.44,13.14Z"/></svg>