<svg id="Layer_1" data-name="Layer 1" xmlns="http://www.w3.org/2000/svg" viewBox="0 0 300 300"><defs><style>.cls-1,.cls-3{fill:none;}.cls-2,.cls-4{fill:#000239;stroke:#000239;}.cls-2,.cls-3{stroke-miterlimit:10;}.cls-2{stroke-width:3px;}.cls-3{stroke:#02afbb;stroke-width:13px;}.cls-4{stroke-linecap:round;stroke-linejoin:round;stroke-width:6.33px;}</style></defs><rect class="cls-1" x="0.04" width="300" height="300"/><path class="cls-2" d="M94.14,215.8A5.89,5.89,0,0,1,91.2,215c-16.31-9.33-38.57-25-43.75-53.49-1.81-9.91-.32-25.81,9.83-38,5.65-6.78,16.18-14.85,34.25-14.85,27,0,40.36,17.81,43.86,34.46,4.22,20.11-4.61,46.23-29.67,57.25a5.93,5.93,0,0,1-4.78-10.86C120.21,181.07,127,161,123.78,145.6c-3.3-15.68-15.36-25-32.25-25-10.82,0-19.27,3.56-25.12,10.58-7.06,8.45-8.75,20.29-7.28,28.27,4.3,23.59,23.72,37.15,38,45.31a5.93,5.93,0,0,1-3,11.08Z"/><path class="cls-2" d="M169.4,294.11H12.94A5.94,5.94,0,0,1,7,288.18c0-19.35.57-46.51,5.4-59.12,7.23-18.82,38.37-30.78,41.9-32.08a5.9,5.9,0,0,1,7.44,3.08c6.47,14.07,17.5,22.46,29.53,22.46s22.62-8.19,29.18-22.46A5.91,5.91,0,0,1,127.9,197c3.53,1.3,34.68,13.26,41.87,32.09,4.53,11.78,4.31,24.44,4.11,35.61l-.07,6a5.94,5.94,0,0,1-11.87,0l.08-6.25c.18-10.09.37-21.52-3.33-31.16-3.77-9.87-20.08-18.81-30.05-23.21-8.73,15.31-22.37,24.28-37.36,24.28h0c-15.19,0-29-9-37.7-24.28-10,4.4-26.29,13.34-30.08,23.21-2.85,7.41-4.39,23.85-4.6,48.93H169.4a5.94,5.94,0,1,1,0,11.87Z"/><circle class="cls-3" cx="230.1" cy="69.74" r="57.17"/><circle class="cls-3" cx="149.4" cy="75.16" r="14.54"/><circle class="cls-3" cx="122.12" cy="94.82" r="8.47"/><path class="cls-4" d="M221.93,80.5V64h4.58c11,0,17.12-4.07,17.12-11.53,0-6.68-6-10.48-16.87-10.48-3,0-6,.26-8.22.46l-.93-11.06a72.11,72.11,0,0,1,9.67-.72c18.05,0,28.38,8.39,28.38,21.34,0,12.34-8.28,20-23.55,22l-.41,6.58Zm13.83,20a9,9,0,1,1-8.94-9A9.2,9.2,0,0,1,235.76,100.55Z"/></svg>