<svg id="Layer_1" data-name="Layer 1" xmlns="http://www.w3.org/2000/svg" viewBox="0 0 300 300"><defs><style>.cls-1,.cls-4{fill:none;}.cls-2,.cls-3{fill:#02afbb;}.cls-2{stroke:#02afbb;stroke-miterlimit:10;stroke-width:5px;}.cls-2,.cls-4{fill-rule:evenodd;}.cls-4{stroke:#111230;stroke-linecap:round;stroke-linejoin:round;stroke-width:16px;}.cls-5{fill:#111230;}</style></defs><rect class="cls-1" x="0.04" width="300" height="300"/><rect class="cls-1" x="0.04" width="300" height="300"/><path class="cls-2" d="M163.29,85.62a4.58,4.58,0,0,1,1.44-3.33,24.35,24.35,0,1,0-33.31,0,4.58,4.58,0,0,1,1.44,3.33V104.1h30.43Zm4.57,0v20a3,3,0,0,1-3.05,3H131.34a3,3,0,0,1-3-3v-20a28.91,28.91,0,1,1,39.56,0Z"/><path class="cls-2" d="M142,88.12a2.28,2.28,0,0,1,2.28,2.28v15.22a2.28,2.28,0,0,1-4.56,0V90.4A2.28,2.28,0,0,1,142,88.12Zm12.17,0a2.29,2.29,0,0,1,2.29,2.28v15.22a2.29,2.29,0,0,1-4.57,0V90.4A2.28,2.28,0,0,1,154.16,88.12Z"/><circle class="cls-3" cx="138.81" cy="65.06" r="7.89"/><circle class="cls-3" cx="157.35" cy="65.06" r="7.89"/><path class="cls-4" d="M227.88,242.59V92.94H212.06V75.63h-19.6a45.76,45.76,0,1,0-88.88,0H84V92.94H68.16V242.59H52.63v41.19H243.41V242.59Z"/><path class="cls-5" d="M111.47,148.91c14,0,21.49,7,21.49,18.16,0,9-5.67,15.33-15.85,17l16.3,21.66H117.27l-15-21.25h-2v21.25H86.78V148.91Zm-11.15,12.28V173h11c4.87,0,7.87-1.9,7.87-6s-3.09-5.88-7.87-5.88Z"/><path class="cls-5" d="M155,205.68H141.43V148.91H155Z"/><path class="cls-5" d="M178.83,186.49v19.19H165.28V148.91h24.33c14,0,21.45,7.54,21.45,18.93,0,11.2-7.42,18.65-21.33,18.65Zm0-25.3v13.22h10.58c4.87,0,7.87-2.27,7.87-6.57s-3-6.65-7.87-6.65Z"/></svg>