<svg id="Layer_1" data-name="Layer 1" xmlns="http://www.w3.org/2000/svg" viewBox="0 0 300 300"><defs><style>.cls-1{fill:none;}.cls-2{fill:#000239;}.cls-3{fill:#02afbb;}</style></defs><rect class="cls-1" x="0.04" width="300" height="300"/><g id="_32_board" data-name="32_board"><path class="cls-2" d="M273.15,203.94H192.93a8.25,8.25,0,0,1,0-16.5h72V37H40.1V141.37a8.25,8.25,0,0,1-16.5,0V28.75a8.25,8.25,0,0,1,8.25-8.25h241.3a8.25,8.25,0,0,1,8.26,8.25V195.69A8.25,8.25,0,0,1,273.15,203.94Z"/><path class="cls-2" d="M244.74,178H217a8.25,8.25,0,1,1,0-16.5h27.77a8.25,8.25,0,0,1,0,16.5Z"/><path class="cls-3" d="M87.93,152.38a8.26,8.26,0,0,1-4.22-1.17C71.78,144.07,55.46,132,51.58,110c-1.42-8.22-.13-21.28,8.16-31.11,4.46-5.3,12.66-11.61,26.42-11.61,15.77,0,28.13,8.69,33.08,23.22a41.54,41.54,0,0,1-13.72,45.76,8.25,8.25,0,0,1-10-13.09c9.08-7,11-19,8.14-27.36-1.52-4.49-5.82-12-17.45-12-6,0-10.6,1.92-13.81,5.73C68,94.62,67,102.24,67.83,107.16c2.08,11.84,9.6,21.07,24.34,29.89a8.25,8.25,0,0,1-4.24,15.33Z"/><path class="cls-3" d="M139.59,278.3H31.85a8.25,8.25,0,0,1-8.25-8.25c0-76.31,2.13-91.89,4-96.93,5.61-15.25,28.71-24.49,31.33-25.49A8.26,8.26,0,0,1,69.41,152c3.16,7.18,9.35,11.47,16.57,11.47h0c7.07,0,13.18-4.29,16.35-11.47a8.23,8.23,0,0,1,10.88-4.22c4.19,1.85,25.37,11.77,30.82,25,3,7.26,3.42,28,3.21,66.14l0,9.67a8.26,8.26,0,0,1-16.51,0l0-9.76c.09-16,.3-53.62-2-59.81-1.56-3.81-8.81-9-15.7-12.9A33.6,33.6,0,0,1,86,180h0a33.93,33.93,0,0,1-27.48-14.07c-6.7,3.47-13.79,8.46-15.43,12.9-.66,2-2.8,13.86-3,83h99.48a8.25,8.25,0,0,1,0,16.5Z"/><path class="cls-3" d="M77.47,233.84a30.44,30.44,0,0,1-10.53-1.94c-24-8.81-41.3-48.32-39.75-57.33a8.25,8.25,0,0,1,16.36,1.91c.9,6.32,15,37,31,40.52,8.14,1.78,16.49-4.64,25-19.07a8.25,8.25,0,1,1,14.22,8.37C101.18,227.71,88.2,233.84,77.47,233.84Z"/><path class="cls-3" d="M158.16,203.08c-11.49,0-22.5-8.81-29.27-23.7a8.25,8.25,0,0,1,15-6.84c4.11,9,10.27,14.7,15,14,5.5-.72,13.31-9.93,17.21-33.51a8.16,8.16,0,0,1,9.48-6.79,8.26,8.26,0,0,1,6.8,9.49c-6.34,38.27-22.34,46-31.33,47.17A22.48,22.48,0,0,1,158.16,203.08Z"/><path class="cls-2" d="M167.2,114.1a5.46,5.46,0,0,1-3.21-1l-23.45-16.5a5.58,5.58,0,0,1,0-9.11L164,71a5.57,5.57,0,0,1,6.42,9.11l-17,12,17,12a5.57,5.57,0,0,1-3.21,10.12Z"/><path class="cls-2" d="M222.53,114.1A5.57,5.57,0,0,1,219.32,104l17-12-17-12A5.57,5.57,0,1,1,225.74,71l23.42,16.51a5.56,5.56,0,0,1,0,9.11l-23.42,16.5A5.53,5.53,0,0,1,222.53,114.1Z"/><path class="cls-2" d="M187.61,124.86a5.9,5.9,0,0,1-1.43-.18,5.58,5.58,0,0,1-4-6.82l14.49-54.55a5.58,5.58,0,1,1,10.78,2.86L193,120.72A5.58,5.58,0,0,1,187.61,124.86Z"/></g></svg>